<svg width="652" height="277" viewBox="0 0 652 277" fill="none" xmlns="http://www.w3.org/2000/svg">
<g filter="url(#filter0_d_102_3)">
<path d="M184.683 125.054L184.381 6.25448L195.325 6.22665L195.627 125.026L184.683 125.054ZM230.436 124.938L230.248 51.21L240.76 51.1832L240.786 61.2632C242.793 57.8021 245.906 54.8662 250.124 52.4554C254.341 50.0447 259.498 48.8316 265.594 48.8161C271.306 48.8016 276.229 49.965 280.363 52.3065C284.497 54.648 287.674 58.072 289.893 62.5783C292.113 67.0367 293.23 72.4339 293.247 78.7699L293.364 124.778L282.852 124.804L282.74 80.8126C282.72 73.1806 280.93 67.3771 277.367 63.4022C273.805 59.3792 268.784 57.376 262.304 57.3925C257.792 57.404 253.93 58.3258 250.719 60.1579C247.556 61.942 245.114 64.3242 243.393 67.3046C241.673 70.237 240.817 73.4312 240.826 76.8872L240.948 124.911L230.436 124.938ZM355.611 164.22C346.299 164.243 338.423 162.439 331.981 158.808C325.54 155.176 320.751 149.86 317.613 142.86L326.458 138.734C328.727 143.816 332.482 147.838 337.721 150.801C342.961 153.812 348.917 155.309 355.589 155.292C361.205 155.277 366.218 154.137 370.628 151.869C375.086 149.65 378.582 146.425 381.115 142.195C383.697 137.964 384.98 132.897 384.965 126.993L384.919 108.993C381.861 114.569 377.648 118.947 372.28 122.129C366.96 125.311 361.012 126.91 354.436 126.926C347.573 126.944 341.352 125.28 335.776 121.934C330.247 118.588 325.843 113.967 322.564 108.071C319.333 102.176 317.708 95.4357 317.689 87.8517C317.67 80.3157 319.261 73.6157 322.462 67.7515C325.663 61.8394 330.019 57.1723 335.53 53.7502C341.09 50.3281 347.397 48.608 354.453 48.5901C360.981 48.5735 366.913 50.1184 372.249 53.2249C377.633 56.3312 381.82 60.6405 384.81 66.1529L384.771 50.817L395.283 50.7903L395.476 126.534C395.496 134.694 393.906 141.562 390.704 147.138C387.502 152.762 382.905 156.998 376.912 159.845C370.968 162.74 363.867 164.199 355.611 164.22ZM356.933 117.776C362.501 117.762 367.418 116.477 371.683 113.922C375.949 111.32 379.3 107.759 381.736 103.241C384.173 98.6747 385.384 93.5116 385.369 87.7516C385.354 81.8956 384.117 76.7147 381.657 72.209C379.198 67.6552 375.829 64.1118 371.55 61.5787C367.272 58.9975 362.372 57.714 356.853 57.728C351.333 57.7421 346.44 59.0505 342.174 61.6534C337.909 64.2082 334.558 67.7688 332.122 72.335C329.685 76.8532 328.474 82.0403 328.489 87.8963C328.504 93.6562 329.717 98.8132 332.128 103.367C334.588 107.873 337.957 111.416 342.236 113.997C346.562 116.53 351.461 117.79 356.933 117.776ZM460.329 126.657C452.601 126.677 445.685 124.99 439.58 121.598C433.523 118.205 428.76 113.585 425.289 107.738C421.818 101.843 420.073 95.2234 420.054 87.8794C420.04 82.3594 421.011 77.2209 422.967 72.4639C424.971 67.6588 427.744 63.4518 431.287 59.8427C434.83 56.2337 438.951 53.4152 443.65 51.3873C448.348 49.3593 453.362 48.3386 458.69 48.325C465.986 48.3064 472.47 49.898 478.142 53.0995C483.862 56.253 488.385 60.6335 491.711 66.2411C495.086 71.8485 496.878 78.324 497.089 85.6675C497.09 86.2435 497.068 86.7235 497.021 87.1076C497.021 87.4436 496.975 87.8758 496.88 88.404L430.496 88.5728C430.511 94.3328 431.82 99.4175 434.423 103.827C437.026 108.236 440.587 111.707 445.105 114.24C449.672 116.724 454.883 117.959 460.739 117.944C466.307 117.93 471.296 116.765 475.706 114.45C480.164 112.087 483.875 108.717 486.84 104.342L494.627 108.498C491.137 114.219 486.373 118.671 480.333 121.854C474.341 125.037 467.673 126.638 460.329 126.657ZM431.052 80.6514L486.564 80.5102C485.928 75.9038 484.31 71.8519 481.709 68.3545C479.108 64.8091 475.813 62.0335 471.824 60.0276C467.882 58.0217 463.56 57.0246 458.856 57.0366C454.008 57.0489 449.595 58.0682 445.616 60.0943C441.637 62.0724 438.356 64.8408 435.773 68.3993C433.238 71.9098 431.664 75.9938 431.052 80.6514ZM521.669 124.197L521.482 50.4693L531.994 50.4426L532.019 60.5225C534.027 57.0614 537.139 54.1255 541.357 51.7148C545.575 49.304 550.732 48.0909 556.828 48.0754C562.54 48.0609 567.463 49.2244 571.597 51.5659C575.731 53.9074 578.907 57.3313 581.127 61.8377C583.346 66.296 584.464 71.6932 584.48 78.0292L584.597 124.037L574.085 124.064L573.973 80.0719C573.954 72.4399 572.163 66.6365 568.601 62.6615C565.039 58.6386 560.018 56.6353 553.538 56.6518C549.026 56.6633 545.164 57.5851 541.953 59.4173C538.789 61.2013 536.347 63.5836 534.627 66.5639C532.906 69.4963 532.05 72.6905 532.059 76.1465L532.181 124.17L521.669 124.197Z" fill="black"/>
</g>
<g filter="url(#filter1_d_102_3)">
<g filter="url(#filter2_i_102_3)">
<path d="M205.792 95.7871C140.025 166.498 71.8829 173.002 29.7339 166.424C29.703 127.946 43.1217 88.6582 159.985 34.072C197.485 10.8975 23.1144 116.61 48.5515 150.882C73.9886 185.153 243.291 72.6126 205.792 95.7871Z" fill="#FF0000"/>
<path d="M114.278 95.7261C180.158 166.525 248.311 173.12 290.449 166.599C290.418 128.12 276.937 88.8144 159.985 34.072C122.449 10.8474 296.989 116.793 271.606 151.031C246.224 185.269 76.7415 72.5015 114.278 95.7261Z" fill="#FF0000"/>
<path d="M204.812 96.8352C205.139 96.4874 205.465 96.138 205.792 95.7871C213.844 90.8104 212.36 92.0925 204.812 96.8352C193.317 109.079 181.753 119.371 170.272 127.983C166.804 126.206 163.39 124.418 160.056 122.639C179.468 112.299 196.141 102.283 204.812 96.8352Z" fill="#FF0000"/>
</g>
</g>
<g filter="url(#filter3_d_102_3)">
<path d="M509.568 175.689C506.816 175.689 504.256 175.161 501.888 174.105C499.536 173.049 497.472 171.585 495.696 169.713C493.936 167.841 492.56 165.665 491.568 163.185C490.576 160.689 490.08 158.009 490.08 155.145C490.08 152.505 490.52 149.953 491.4 147.489C492.28 145.025 493.568 142.833 495.264 140.913C496.96 138.977 499.032 137.441 501.48 136.305C503.944 135.169 506.736 134.601 509.856 134.601C511.904 134.601 513.84 134.857 515.664 135.369C517.488 135.881 519.16 136.593 520.68 137.505C522.216 138.417 523.552 139.489 524.688 140.721L522.792 143.505C521.288 141.793 519.4 140.425 517.128 139.401C514.856 138.361 512.416 137.841 509.808 137.841C507.312 137.841 505.08 138.305 503.112 139.233C501.16 140.161 499.504 141.433 498.144 143.049C496.784 144.649 495.752 146.481 495.048 148.545C494.344 150.593 493.992 152.753 493.992 155.025C493.992 157.473 494.384 159.753 495.168 161.865C495.968 163.961 497.08 165.801 498.504 167.385C499.928 168.953 501.592 170.177 503.496 171.057C505.4 171.921 507.448 172.353 509.64 172.353C511.416 172.353 513.16 172.057 514.872 171.465C516.584 170.873 518.12 170.017 519.48 168.897C520.856 167.777 521.944 166.441 522.744 164.889C523.56 163.321 523.968 161.561 523.968 159.609V158.241H509.376V155.289H527.712V158.817C527.712 161.617 527.184 164.073 526.128 166.185C525.072 168.297 523.664 170.057 521.904 171.465C520.144 172.857 518.192 173.913 516.048 174.633C513.904 175.337 511.744 175.689 509.568 175.689ZM536.582 174.921V150.345H540.086V153.969C540.87 152.529 541.878 151.441 543.11 150.705C544.358 149.953 545.798 149.577 547.43 149.577C548.15 149.577 548.878 149.657 549.614 149.817C550.366 149.977 551.014 150.185 551.558 150.441L550.118 153.393C549.638 153.153 549.086 152.969 548.462 152.841C547.854 152.713 547.27 152.649 546.71 152.649C545.574 152.649 544.502 152.937 543.494 153.513C542.486 154.089 541.662 154.841 541.022 155.769C540.398 156.681 540.086 157.657 540.086 158.697V174.921H536.582ZM569.459 175.689C566.899 175.689 564.587 175.137 562.523 174.033C560.475 172.929 558.851 171.393 557.651 169.425C556.451 167.457 555.851 165.193 555.851 162.633C555.851 160.057 556.451 157.793 557.651 155.841C558.851 153.873 560.475 152.337 562.523 151.233C564.571 150.129 566.883 149.577 569.459 149.577C572.019 149.577 574.323 150.129 576.371 151.233C578.435 152.337 580.067 153.873 581.267 155.841C582.467 157.793 583.067 160.057 583.067 162.633C583.067 165.193 582.467 167.457 581.267 169.425C580.067 171.393 578.435 172.929 576.371 174.033C574.323 175.137 572.019 175.689 569.459 175.689ZM569.459 172.569C571.379 172.569 573.091 172.145 574.595 171.297C576.099 170.449 577.283 169.281 578.147 167.793C579.011 166.289 579.443 164.569 579.443 162.633C579.443 160.697 579.011 158.985 578.147 157.497C577.283 155.993 576.099 154.817 574.595 153.969C573.091 153.121 571.379 152.697 569.459 152.697C567.539 152.697 565.827 153.121 564.323 153.969C562.819 154.817 561.635 155.993 560.771 157.497C559.907 158.985 559.475 160.697 559.475 162.633C559.475 164.553 559.907 166.265 560.771 167.769C561.635 169.273 562.819 170.449 564.323 171.297C565.827 172.145 567.539 172.569 569.459 172.569ZM601.455 175.689C597.727 175.689 595.063 174.849 593.463 173.169C591.863 171.489 591.063 168.681 591.063 164.745V150.345H594.567V164.121C594.567 167.225 595.095 169.441 596.151 170.769C597.207 172.081 598.975 172.737 601.455 172.737C603.951 172.737 605.719 172.081 606.759 170.769C607.815 169.441 608.343 167.225 608.343 164.121V150.345H611.847V164.745C611.847 168.681 611.047 171.489 609.447 173.169C607.863 174.849 605.199 175.689 601.455 175.689ZM621.754 187.401V150.345H625.258V155.433C626.25 153.593 627.634 152.161 629.41 151.137C631.202 150.097 633.186 149.577 635.362 149.577C637.714 149.577 639.818 150.145 641.674 151.281C643.53 152.417 644.994 153.969 646.066 155.937C647.138 157.889 647.674 160.121 647.674 162.633C647.674 165.113 647.138 167.345 646.066 169.329C645.01 171.297 643.554 172.849 641.698 173.985C639.858 175.121 637.762 175.689 635.41 175.689C633.266 175.689 631.298 175.161 629.506 174.105C627.714 173.049 626.298 171.593 625.258 169.737V187.401H621.754ZM634.594 172.641C636.434 172.641 638.066 172.217 639.49 171.369C640.914 170.505 642.026 169.321 642.826 167.817C643.642 166.313 644.05 164.593 644.05 162.657C644.05 160.705 643.642 158.977 642.826 157.473C642.01 155.953 640.89 154.769 639.466 153.921C638.058 153.057 636.434 152.625 634.594 152.625C632.754 152.625 631.122 153.057 629.698 153.921C628.274 154.769 627.154 155.945 626.338 157.449C625.522 158.953 625.114 160.681 625.114 162.633C625.114 164.569 625.522 166.297 626.338 167.817C627.154 169.321 628.274 170.505 629.698 171.369C631.138 172.217 632.77 172.641 634.594 172.641Z" fill="black"/>
</g>
<defs>
<filter id="filter0_d_102_3" x="180.381" y="5.23742" width="408.317" height="167.417" filterUnits="userSpaceOnUse" color-interpolation-filters="sRGB">
<feFlood flood-opacity="0" result="BackgroundImageFix"/>
<feColorMatrix in="SourceAlpha" type="matrix" values="0 0 0 0 0 0 0 0 0 0 0 0 0 0 0 0 0 0 127 0" result="hardAlpha"/>
<feOffset dy="4"/>
<feGaussianBlur stdDeviation="2"/>
<feComposite in2="hardAlpha" operator="out"/>
<feColorMatrix type="matrix" values="0 0 0 0 0 0 0 0 0 0 0 0 0 0 0 0 0 0 0.25 0"/>
<feBlend mode="normal" in2="BackgroundImageFix" result="effect1_dropShadow_102_3"/>
<feBlend mode="normal" in="SourceGraphic" in2="effect1_dropShadow_102_3" result="shape"/>
</filter>
<filter id="filter1_d_102_3" x="25.7338" y="30.7764" width="268.715" height="145.771" filterUnits="userSpaceOnUse" color-interpolation-filters="sRGB">
<feFlood flood-opacity="0" result="BackgroundImageFix"/>
<feColorMatrix in="SourceAlpha" type="matrix" values="0 0 0 0 0 0 0 0 0 0 0 0 0 0 0 0 0 0 127 0" result="hardAlpha"/>
<feOffset dy="4"/>
<feGaussianBlur stdDeviation="2"/>
<feComposite in2="hardAlpha" operator="out"/>
<feColorMatrix type="matrix" values="0 0 0 0 0 0 0 0 0 0 0 0 0 0 0 0 0 0 0.25 0"/>
<feBlend mode="normal" in2="BackgroundImageFix" result="effect1_dropShadow_102_3"/>
<feBlend mode="normal" in="SourceGraphic" in2="effect1_dropShadow_102_3" result="shape"/>
</filter>
<filter id="filter2_i_102_3" x="29.7338" y="30.7764" width="260.715" height="141.771" filterUnits="userSpaceOnUse" color-interpolation-filters="sRGB">
<feFlood flood-opacity="0" result="BackgroundImageFix"/>
<feBlend mode="normal" in="SourceGraphic" in2="BackgroundImageFix" result="shape"/>
<feColorMatrix in="SourceAlpha" type="matrix" values="0 0 0 0 0 0 0 0 0 0 0 0 0 0 0 0 0 0 127 0" result="hardAlpha"/>
<feOffset dy="4"/>
<feGaussianBlur stdDeviation="2"/>
<feComposite in2="hardAlpha" operator="arithmetic" k2="-1" k3="1"/>
<feColorMatrix type="matrix" values="0 0 0 0 0 0 0 0 0 0 0 0 0 0 0 0 0 0 0.25 0"/>
<feBlend mode="normal" in2="shape" result="effect1_innerShadow_102_3"/>
</filter>
<filter id="filter3_d_102_3" x="486.08" y="134.601" width="165.594" height="60.8" filterUnits="userSpaceOnUse" color-interpolation-filters="sRGB">
<feFlood flood-opacity="0" result="BackgroundImageFix"/>
<feColorMatrix in="SourceAlpha" type="matrix" values="0 0 0 0 0 0 0 0 0 0 0 0 0 0 0 0 0 0 127 0" result="hardAlpha"/>
<feOffset dy="4"/>
<feGaussianBlur stdDeviation="2"/>
<feComposite in2="hardAlpha" operator="out"/>
<feColorMatrix type="matrix" values="0 0 0 0 0 0 0 0 0 0 0 0 0 0 0 0 0 0 0.25 0"/>
<feBlend mode="normal" in2="BackgroundImageFix" result="effect1_dropShadow_102_3"/>
<feBlend mode="normal" in="SourceGraphic" in2="effect1_dropShadow_102_3" result="shape"/>
</filter>
</defs>
</svg>
