<svg width="703" height="335" viewBox="0 0 703 335" fill="none" xmlns="http://www.w3.org/2000/svg">
<g filter="url(#filter0_d_102_3)">
<g filter="url(#filter1_i_102_3)">
<path d="M409.075 232.023C374.536 272.205 338.75 275.901 316.615 272.164C316.599 250.298 323.646 227.972 385.019 196.952C404.712 183.783 313.139 243.856 326.498 263.331C339.856 282.807 428.768 218.854 409.075 232.023Z" fill="#FF0000"/>
<path d="M361.015 231.988C395.613 272.221 431.404 275.968 453.534 272.263C453.518 250.397 446.438 228.061 385.019 196.952C365.306 183.755 456.969 243.96 443.639 263.416C430.309 282.872 341.302 218.791 361.015 231.988Z" fill="#FF0000"/>
<path d="M408.561 232.619C408.732 232.421 408.903 232.222 409.075 232.023C413.304 229.195 412.525 229.923 408.561 232.619C402.524 239.577 396.451 245.425 390.421 250.319C388.6 249.309 386.807 248.293 385.056 247.282C395.25 241.406 404.007 235.715 408.561 232.619Z" fill="#FF0000"/>
</g>
</g>
<g filter="url(#filter2_d_102_3)">
<path d="M27.3373 173.462L26.9177 8.46256L42.1177 8.42391L42.5373 173.423L27.3373 173.462ZM90.8825 173.3L90.622 70.9008L105.222 70.8636L105.258 84.8636C108.045 80.0565 112.368 75.9788 118.227 72.6306C124.085 69.2823 131.247 67.5974 139.714 67.5759C147.647 67.5557 154.485 69.1717 160.226 72.4237C165.968 75.6758 170.38 80.4313 173.462 86.6901C176.545 92.8823 178.097 100.378 178.12 109.178L178.282 173.078L163.682 173.115L163.527 112.015C163.5 101.416 161.013 93.3551 156.065 87.8344C151.118 82.2469 144.144 79.4647 135.144 79.4876C128.877 79.5035 123.514 80.7838 119.054 83.3285C114.66 85.8063 111.268 89.115 108.879 93.2544C106.489 97.3272 105.301 101.764 105.313 106.564L105.482 173.263L90.8825 173.3ZM264.737 227.858C251.804 227.891 240.864 225.386 231.918 220.342C222.972 215.298 216.32 207.915 211.962 198.193L224.247 192.461C227.399 199.52 232.613 205.107 239.89 209.222C247.167 213.403 255.439 215.482 264.706 215.459C272.506 215.439 279.468 213.854 285.594 210.705C291.786 207.623 296.641 203.144 300.16 197.268C303.745 191.392 305.527 184.355 305.506 176.155L305.442 151.155C301.195 158.899 295.344 164.98 287.889 169.399C280.5 173.818 272.239 176.039 263.106 176.062C253.572 176.087 244.933 173.775 237.188 169.128C229.509 164.481 223.393 158.063 218.839 149.875C214.351 141.686 212.094 132.325 212.067 121.792C212.041 111.325 214.251 102.02 218.696 93.8751C223.142 85.6638 229.192 79.1817 236.847 74.4289C244.568 69.6759 253.329 67.287 263.129 67.262C272.196 67.239 280.434 69.3847 287.845 73.6992C295.323 78.0135 301.138 83.9987 305.291 91.6549L305.237 70.3549L319.837 70.3178L320.104 175.517C320.133 186.851 317.924 196.39 313.477 204.134C309.03 211.946 302.645 217.829 294.322 221.783C286.066 225.804 276.204 227.829 264.737 227.858ZM266.573 163.354C274.307 163.334 281.135 161.55 287.06 158.001C292.984 154.386 297.638 149.441 301.022 143.166C304.406 136.824 306.088 129.653 306.067 121.653C306.047 113.52 304.328 106.324 300.913 100.066C297.496 93.7414 292.817 88.8199 286.875 85.3017C280.932 81.7168 274.128 79.9341 266.461 79.9536C258.795 79.9731 251.999 81.7904 246.075 85.4055C240.151 88.9539 235.497 93.8991 232.113 100.241C228.729 106.516 227.047 113.721 227.068 121.854C227.088 129.854 228.773 137.016 232.122 143.341C235.538 149.599 240.217 154.521 246.16 158.105C252.169 161.624 258.973 163.373 266.573 163.354ZM410.179 175.688C399.445 175.716 389.839 173.373 381.361 168.662C372.949 163.95 366.332 157.533 361.512 149.412C356.691 141.224 354.267 132.03 354.241 121.83C354.222 114.164 355.57 107.027 358.287 100.42C361.07 93.7464 364.922 87.9032 369.842 82.8907C374.763 77.8782 380.486 73.9636 387.013 71.147C393.539 68.3304 400.502 66.9127 407.902 66.8938C418.035 66.8681 427.041 69.0785 434.919 73.5252C442.863 77.905 449.146 83.989 453.765 91.7773C458.452 99.5654 460.941 108.559 461.234 118.758C461.236 119.558 461.204 120.225 461.139 120.759C461.14 121.225 461.075 121.825 460.944 122.559L368.744 122.794C368.764 130.794 370.582 137.856 374.198 143.98C377.813 150.104 382.759 154.925 389.035 158.442C395.377 161.893 402.615 163.608 410.748 163.587C418.481 163.567 425.41 161.95 431.536 158.734C437.727 155.452 442.882 150.772 447 144.695L457.815 150.467C452.968 158.413 446.351 164.596 437.962 169.018C429.64 173.439 420.379 175.662 410.179 175.688ZM369.516 111.792L446.616 111.596C445.733 105.198 443.485 99.5701 439.873 94.7126C436.26 89.7885 431.684 85.9334 426.143 83.1475C420.67 80.3614 414.666 78.9767 408.133 78.9933C401.399 79.0104 395.27 80.426 389.743 83.2401C384.217 85.9875 379.66 89.8324 376.073 94.7749C372.552 99.6505 370.366 105.323 369.516 111.792ZM495.373 172.272L495.113 69.8721L509.713 69.8349L509.748 83.8349C512.536 79.0278 516.859 74.9501 522.717 71.6019C528.576 68.2536 535.738 66.5687 544.205 66.5472C552.138 66.527 558.975 68.143 564.717 71.395C570.459 74.6471 574.871 79.4026 577.953 85.6614C581.036 91.8536 582.588 99.3497 582.611 108.15L582.773 172.049L568.173 172.087L568.018 110.987C567.991 100.387 565.504 92.3264 560.556 86.8057C555.609 81.2182 548.635 78.436 539.635 78.4589C533.368 78.4748 528.005 79.7551 523.545 82.2998C519.151 84.7776 515.759 88.0863 513.37 92.2257C510.98 96.2985 509.791 100.735 509.804 105.535L509.973 172.235L495.373 172.272Z" fill="black"/>
</g>
<g filter="url(#filter3_d_102_3)">
<path d="M496.37 269.12C492.357 269.12 488.623 268.35 485.17 266.81C481.74 265.27 478.73 263.135 476.14 260.405C473.573 257.675 471.567 254.502 470.12 250.885C468.673 247.245 467.95 243.337 467.95 239.16C467.95 235.31 468.592 231.588 469.875 227.995C471.158 224.402 473.037 221.205 475.51 218.405C477.983 215.582 481.005 213.342 484.575 211.685C488.168 210.028 492.24 209.2 496.79 209.2C499.777 209.2 502.6 209.573 505.26 210.32C507.92 211.067 510.358 212.105 512.575 213.435C514.815 214.765 516.763 216.328 518.42 218.125L515.655 222.185C513.462 219.688 510.708 217.693 507.395 216.2C504.082 214.683 500.523 213.925 496.72 213.925C493.08 213.925 489.825 214.602 486.955 215.955C484.108 217.308 481.693 219.163 479.71 221.52C477.727 223.853 476.222 226.525 475.195 229.535C474.168 232.522 473.655 235.672 473.655 238.985C473.655 242.555 474.227 245.88 475.37 248.96C476.537 252.017 478.158 254.7 480.235 257.01C482.312 259.297 484.738 261.082 487.515 262.365C490.292 263.625 493.278 264.255 496.475 264.255C499.065 264.255 501.608 263.823 504.105 262.96C506.602 262.097 508.842 260.848 510.825 259.215C512.832 257.582 514.418 255.633 515.585 253.37C516.775 251.083 517.37 248.517 517.37 245.67V243.675H496.09V239.37H522.83V244.515C522.83 248.598 522.06 252.18 520.52 255.26C518.98 258.34 516.927 260.907 514.36 262.96C511.793 264.99 508.947 266.53 505.82 267.58C502.693 268.607 499.543 269.12 496.37 269.12ZM535.765 268V232.16H540.875V237.445C542.019 235.345 543.489 233.758 545.285 232.685C547.105 231.588 549.205 231.04 551.585 231.04C552.635 231.04 553.697 231.157 554.77 231.39C555.867 231.623 556.812 231.927 557.605 232.3L555.505 236.605C554.805 236.255 554 235.987 553.09 235.8C552.204 235.613 551.352 235.52 550.535 235.52C548.879 235.52 547.315 235.94 545.845 236.78C544.375 237.62 543.174 238.717 542.24 240.07C541.33 241.4 540.875 242.823 540.875 244.34V268H535.765ZM583.71 269.12C579.977 269.12 576.605 268.315 573.595 266.705C570.609 265.095 568.24 262.855 566.49 259.985C564.74 257.115 563.865 253.813 563.865 250.08C563.865 246.323 564.74 243.022 566.49 240.175C568.24 237.305 570.609 235.065 573.595 233.455C576.582 231.845 579.954 231.04 583.71 231.04C587.444 231.04 590.804 231.845 593.79 233.455C596.8 235.065 599.18 237.305 600.93 240.175C602.68 243.022 603.555 246.323 603.555 250.08C603.555 253.813 602.68 257.115 600.93 259.985C599.18 262.855 596.8 265.095 593.79 266.705C590.804 268.315 587.444 269.12 583.71 269.12ZM583.71 264.57C586.51 264.57 589.007 263.952 591.2 262.715C593.394 261.478 595.12 259.775 596.38 257.605C597.64 255.412 598.27 252.903 598.27 250.08C598.27 247.257 597.64 244.76 596.38 242.59C595.12 240.397 593.394 238.682 591.2 237.445C589.007 236.208 586.51 235.59 583.71 235.59C580.91 235.59 578.414 236.208 576.22 237.445C574.027 238.682 572.3 240.397 571.04 242.59C569.78 244.76 569.15 247.257 569.15 250.08C569.15 252.88 569.78 255.377 571.04 257.57C572.3 259.763 574.027 261.478 576.22 262.715C578.414 263.952 580.91 264.57 583.71 264.57ZM630.372 269.12C624.936 269.12 621.051 267.895 618.717 265.445C616.384 262.995 615.217 258.9 615.217 253.16V232.16H620.327V252.25C620.327 256.777 621.097 260.008 622.637 261.945C624.177 263.858 626.756 264.815 630.372 264.815C634.012 264.815 636.591 263.858 638.107 261.945C639.647 260.008 640.417 256.777 640.417 252.25V232.16H645.527V253.16C645.527 258.9 644.361 262.995 642.027 265.445C639.717 267.895 635.832 269.12 630.372 269.12ZM659.974 286.2V232.16H665.084V239.58C666.531 236.897 668.549 234.808 671.139 233.315C673.753 231.798 676.646 231.04 679.819 231.04C683.249 231.04 686.318 231.868 689.024 233.525C691.731 235.182 693.866 237.445 695.429 240.315C696.993 243.162 697.774 246.417 697.774 250.08C697.774 253.697 696.993 256.952 695.429 259.845C693.889 262.715 691.766 264.978 689.059 266.635C686.376 268.292 683.319 269.12 679.889 269.12C676.763 269.12 673.893 268.35 671.279 266.81C668.666 265.27 666.601 263.147 665.084 260.44V286.2H659.974ZM678.699 264.675C681.383 264.675 683.763 264.057 685.839 262.82C687.916 261.56 689.538 259.833 690.704 257.64C691.894 255.447 692.489 252.938 692.489 250.115C692.489 247.268 691.894 244.748 690.704 242.555C689.514 240.338 687.881 238.612 685.804 237.375C683.751 236.115 681.383 235.485 678.699 235.485C676.016 235.485 673.636 236.115 671.559 237.375C669.483 238.612 667.849 240.327 666.659 242.52C665.469 244.713 664.874 247.233 664.874 250.08C664.874 252.903 665.469 255.423 666.659 257.64C667.849 259.833 669.483 261.56 671.559 262.82C673.659 264.057 676.039 264.675 678.699 264.675Z" fill="black"/>
</g>
<defs>
<filter id="filter0_d_102_3" x="312.615" y="195.08" width="144.919" height="86.2908" filterUnits="userSpaceOnUse" color-interpolation-filters="sRGB">
<feFlood flood-opacity="0" result="BackgroundImageFix"/>
<feColorMatrix in="SourceAlpha" type="matrix" values="0 0 0 0 0 0 0 0 0 0 0 0 0 0 0 0 0 0 127 0" result="hardAlpha"/>
<feOffset dy="4"/>
<feGaussianBlur stdDeviation="2"/>
<feComposite in2="hardAlpha" operator="out"/>
<feColorMatrix type="matrix" values="0 0 0 0 0 0 0 0 0 0 0 0 0 0 0 0 0 0 0.25 0"/>
<feBlend mode="normal" in2="BackgroundImageFix" result="effect1_dropShadow_102_3"/>
<feBlend mode="normal" in="SourceGraphic" in2="effect1_dropShadow_102_3" result="shape"/>
</filter>
<filter id="filter1_i_102_3" x="316.615" y="195.08" width="136.919" height="82.2908" filterUnits="userSpaceOnUse" color-interpolation-filters="sRGB">
<feFlood flood-opacity="0" result="BackgroundImageFix"/>
<feBlend mode="normal" in="SourceGraphic" in2="BackgroundImageFix" result="shape"/>
<feColorMatrix in="SourceAlpha" type="matrix" values="0 0 0 0 0 0 0 0 0 0 0 0 0 0 0 0 0 0 127 0" result="hardAlpha"/>
<feOffset dy="4"/>
<feGaussianBlur stdDeviation="2"/>
<feComposite in2="hardAlpha" operator="arithmetic" k2="-1" k3="1"/>
<feColorMatrix type="matrix" values="0 0 0 0 0 0 0 0 0 0 0 0 0 0 0 0 0 0 0.25 0"/>
<feBlend mode="normal" in2="shape" result="effect1_innerShadow_102_3"/>
</filter>
<filter id="filter2_d_102_3" x="22.9177" y="7.04999" width="563.995" height="229.412" filterUnits="userSpaceOnUse" color-interpolation-filters="sRGB">
<feFlood flood-opacity="0" result="BackgroundImageFix"/>
<feColorMatrix in="SourceAlpha" type="matrix" values="0 0 0 0 0 0 0 0 0 0 0 0 0 0 0 0 0 0 127 0" result="hardAlpha"/>
<feOffset dy="4"/>
<feGaussianBlur stdDeviation="2"/>
<feComposite in2="hardAlpha" operator="out"/>
<feColorMatrix type="matrix" values="0 0 0 0 0 0 0 0 0 0 0 0 0 0 0 0 0 0 0.25 0"/>
<feBlend mode="normal" in2="BackgroundImageFix" result="effect1_dropShadow_102_3"/>
<feBlend mode="normal" in="SourceGraphic" in2="effect1_dropShadow_102_3" result="shape"/>
</filter>
<filter id="filter3_d_102_3" x="463.95" y="209.2" width="237.824" height="85" filterUnits="userSpaceOnUse" color-interpolation-filters="sRGB">
<feFlood flood-opacity="0" result="BackgroundImageFix"/>
<feColorMatrix in="SourceAlpha" type="matrix" values="0 0 0 0 0 0 0 0 0 0 0 0 0 0 0 0 0 0 127 0" result="hardAlpha"/>
<feOffset dy="4"/>
<feGaussianBlur stdDeviation="2"/>
<feComposite in2="hardAlpha" operator="out"/>
<feColorMatrix type="matrix" values="0 0 0 0 0 0 0 0 0 0 0 0 0 0 0 0 0 0 0.25 0"/>
<feBlend mode="normal" in2="BackgroundImageFix" result="effect1_dropShadow_102_3"/>
<feBlend mode="normal" in="SourceGraphic" in2="effect1_dropShadow_102_3" result="shape"/>
</filter>
</defs>
</svg>
