<svg width="457" height="228" viewBox="0 0 457 228" fill="none" xmlns="http://www.w3.org/2000/svg">
<g filter="url(#filter0_d_130_6)">
<path d="M15.1055 42.4028L27.1055 42.3722L27.3534 139.872L15.3535 139.902L15.1055 42.4028ZM51.9536 64.8091L63.9536 64.7786L64.1443 139.778L52.1444 139.809L51.9536 64.8091ZM89.7497 63.213C93.7497 63.2028 97.3512 63.7937 100.554 64.9855C103.757 66.1774 106.462 67.9205 108.668 70.2149C110.873 72.5093 112.581 75.305 113.789 78.6019C114.997 81.7988 115.606 85.4473 115.617 89.5473L115.744 139.647L103.744 139.678L103.624 92.5778C103.61 86.7778 102.249 82.4313 99.5412 79.5381C96.8339 76.645 92.7802 75.2053 87.3802 75.2191C83.2802 75.2295 79.4829 76.2891 75.9883 78.398C72.4936 80.5069 69.601 83.4143 67.3104 87.1201C65.1196 90.7257 63.7803 94.9291 63.2925 99.7304L63.1203 91.0308C63.6097 86.8295 64.6 83.027 66.0913 79.6232C67.6827 76.2192 69.6253 73.3142 71.9192 70.9084C74.3128 68.4023 77.008 66.4954 80.0047 65.1878C83.1014 63.8799 86.3497 63.2216 89.7497 63.213ZM162.021 127.679C156.721 127.693 151.667 126.456 146.861 123.968C142.154 121.38 138.295 117.69 135.283 112.897C132.371 108.105 130.906 102.358 130.889 95.6585C130.872 88.9585 132.307 83.2048 135.195 78.3975C138.083 73.4901 141.873 69.7305 146.566 67.1185C151.26 64.4066 156.356 63.0436 161.856 63.0296C163.556 63.0253 165.156 63.1712 166.657 63.4674C168.258 63.6633 169.759 64.0095 171.16 64.506L201.61 64.4285L201.643 77.3285C197.343 77.3394 193.041 76.5503 188.737 74.9613C184.532 73.372 180.928 71.7311 177.924 70.0388L177.322 69.4403C180.827 71.3314 183.683 73.5741 185.89 76.1685C188.196 78.7627 189.904 81.7083 191.012 85.0055C192.22 88.2025 192.829 91.7009 192.839 95.5009C192.856 102.201 191.42 107.955 188.533 112.762C185.745 117.569 182.004 121.279 177.311 123.891C172.617 126.402 167.52 127.665 162.021 127.679ZM184.177 169.473L184.168 166.173C184.155 160.873 182.745 157.027 179.939 154.634C177.233 152.241 173.13 151.051 167.63 151.065L152.63 151.103C149.33 151.112 146.429 150.819 143.928 150.225C141.527 149.732 139.524 148.937 137.922 147.841C136.319 146.745 135.115 145.398 134.311 143.8C133.507 142.202 133.103 140.403 133.098 138.403C133.088 134.603 134.231 131.75 136.526 129.844C138.821 127.838 141.668 126.581 145.066 126.073C148.465 125.564 151.715 125.556 154.816 126.048L162.021 127.679C156.621 127.993 152.423 128.554 149.425 129.361C146.527 130.169 145.081 131.872 145.088 134.472C145.092 135.972 145.645 137.221 146.747 138.218C147.95 139.115 149.701 139.561 152.001 139.555L167.601 139.515C172.801 139.502 177.552 140.19 181.856 141.579C186.16 143.068 189.616 145.509 192.225 148.903C194.833 152.396 196.146 157.143 196.161 163.143L196.177 169.443L184.177 169.473ZM161.992 116.429C165.292 116.421 168.34 115.613 171.136 114.006C174.032 112.399 176.376 110.043 178.168 106.938C179.96 103.834 180.85 100.031 180.839 95.5314C180.827 91.0315 179.918 87.2338 178.11 84.1383C176.402 80.9427 174.096 78.5485 171.192 76.9559C168.287 75.2633 165.185 74.4212 161.885 74.4296C158.585 74.438 155.487 75.2958 152.592 77.0032C149.696 78.6106 147.352 80.9666 145.56 84.0711C143.767 87.1757 142.877 91.028 142.889 95.628C142.9 100.128 143.81 103.926 145.618 107.021C147.426 110.116 149.782 112.46 152.686 114.053C155.59 115.646 158.692 116.438 161.992 116.429ZM268.952 115.107L280.202 115.079C279.414 119.981 277.625 124.385 274.835 128.292C272.145 132.099 268.553 135.158 264.059 137.47C259.664 139.681 254.567 140.794 248.767 140.809C241.767 140.827 235.463 139.193 229.855 135.907C224.246 132.521 219.784 127.932 216.469 122.141C213.254 116.249 211.637 109.553 211.618 102.053C211.599 94.5532 213.132 87.8493 216.217 81.9414C219.402 76.0333 223.74 71.3723 229.232 67.9583C234.723 64.5443 240.919 62.8285 247.819 62.811C255.119 62.7924 261.273 64.4268 266.281 67.714C271.389 70.9011 275.151 75.6415 277.567 81.9354C280.083 88.129 281.103 95.7764 280.626 104.878L223.626 105.023C224.138 109.921 225.499 114.218 227.709 117.912C229.918 121.607 232.826 124.499 236.431 126.59C240.036 128.581 244.138 129.571 248.738 129.559C253.838 129.546 258.135 128.235 261.628 125.626C265.222 122.917 267.663 119.411 268.952 115.107ZM248.297 74.0598C242.097 74.0756 236.902 75.8888 232.711 79.4995C228.52 83.1101 225.733 88.0172 224.349 94.2208L268.298 94.109C267.882 87.51 265.719 82.5155 261.81 79.1255C258.002 75.7351 253.497 74.0466 248.297 74.0598ZM295.996 64.1885L307.996 64.158L308.186 139.158L296.187 139.188L295.996 64.1885ZM333.792 62.5923C337.792 62.5822 341.393 63.173 344.596 64.3649C347.799 65.5567 350.504 67.2999 352.71 69.5942C354.916 71.8886 356.623 74.6843 357.831 77.9813C359.039 81.1782 359.648 84.8267 359.659 88.9266L359.786 139.026L347.786 139.057L347.667 91.9572C347.652 86.1572 346.291 81.8106 343.583 78.9175C340.876 76.0244 336.822 74.5847 331.422 74.5984C327.322 74.6088 323.525 75.6685 320.03 77.7774C316.536 79.8863 313.643 82.7936 311.353 86.4995C309.162 90.1051 307.822 94.3085 307.335 99.1097L307.163 90.4102C307.652 86.2089 308.642 82.4064 310.134 79.0026C311.725 75.5985 313.667 72.6936 315.961 70.2877C318.355 67.7816 321.05 65.8748 324.047 64.5671C327.144 63.2592 330.392 62.601 333.792 62.5923Z" fill="black" fill-opacity="0.6" shape-rendering="crispEdges"/>
</g>
<g filter="url(#filter1_d_130_6)">
<path d="M308.55 207.075C305.683 207.075 303.017 206.525 300.55 205.425C298.1 204.325 295.95 202.8 294.1 200.85C292.267 198.9 290.833 196.633 289.8 194.05C288.767 191.45 288.25 188.658 288.25 185.675C288.25 182.925 288.708 180.266 289.625 177.7C290.542 175.133 291.883 172.85 293.65 170.85C295.417 168.833 297.575 167.233 300.125 166.05C302.692 164.866 305.6 164.275 308.85 164.275C310.983 164.275 313 164.541 314.9 165.075C316.8 165.608 318.542 166.35 320.125 167.3C321.725 168.25 323.117 169.366 324.3 170.65L322.325 173.55C320.758 171.766 318.792 170.341 316.425 169.275C314.058 168.191 311.517 167.65 308.8 167.65C306.2 167.65 303.875 168.133 301.825 169.1C299.792 170.066 298.067 171.391 296.65 173.075C295.233 174.741 294.158 176.65 293.425 178.8C292.692 180.933 292.325 183.183 292.325 185.55C292.325 188.1 292.733 190.475 293.55 192.675C294.383 194.858 295.542 196.775 297.025 198.425C298.508 200.058 300.242 201.333 302.225 202.25C304.208 203.15 306.342 203.6 308.625 203.6C310.475 203.6 312.292 203.291 314.075 202.675C315.858 202.058 317.458 201.166 318.875 200C320.308 198.833 321.442 197.441 322.275 195.825C323.125 194.191 323.55 192.358 323.55 190.325V188.9H308.35V185.825H327.45V189.5C327.45 192.416 326.9 194.975 325.8 197.175C324.7 199.375 323.233 201.208 321.4 202.675C319.567 204.125 317.533 205.225 315.3 205.975C313.067 206.708 310.817 207.075 308.55 207.075ZM336.689 206.275V180.675H340.339V184.45C341.156 182.95 342.206 181.816 343.489 181.05C344.789 180.266 346.289 179.875 347.989 179.875C348.739 179.875 349.498 179.958 350.264 180.125C351.048 180.291 351.723 180.508 352.289 180.775L350.789 183.85C350.289 183.6 349.714 183.408 349.064 183.275C348.431 183.141 347.823 183.075 347.239 183.075C346.056 183.075 344.939 183.375 343.889 183.975C342.839 184.575 341.981 185.358 341.314 186.325C340.664 187.275 340.339 188.291 340.339 189.375V206.275H336.689ZM370.936 207.075C368.269 207.075 365.861 206.5 363.711 205.35C361.578 204.2 359.886 202.6 358.636 200.55C357.386 198.5 356.761 196.141 356.761 193.475C356.761 190.791 357.386 188.433 358.636 186.4C359.886 184.35 361.578 182.75 363.711 181.6C365.844 180.45 368.253 179.875 370.936 179.875C373.603 179.875 376.003 180.45 378.136 181.6C380.286 182.75 381.986 184.35 383.236 186.4C384.486 188.433 385.111 190.791 385.111 193.475C385.111 196.141 384.486 198.5 383.236 200.55C381.986 202.6 380.286 204.2 378.136 205.35C376.003 206.5 373.603 207.075 370.936 207.075ZM370.936 203.825C372.936 203.825 374.719 203.383 376.286 202.5C377.853 201.616 379.086 200.4 379.986 198.85C380.886 197.283 381.336 195.491 381.336 193.475C381.336 191.458 380.886 189.675 379.986 188.125C379.086 186.558 377.853 185.333 376.286 184.45C374.719 183.566 372.936 183.125 370.936 183.125C368.936 183.125 367.153 183.566 365.586 184.45C364.019 185.333 362.786 186.558 361.886 188.125C360.986 189.675 360.536 191.458 360.536 193.475C360.536 195.475 360.986 197.258 361.886 198.825C362.786 200.391 364.019 201.616 365.586 202.5C367.153 203.383 368.936 203.825 370.936 203.825ZM404.266 207.075C400.383 207.075 397.608 206.2 395.941 204.45C394.274 202.7 393.441 199.775 393.441 195.675V180.675H397.091V195.025C397.091 198.258 397.641 200.566 398.741 201.95C399.841 203.316 401.683 204 404.266 204C406.866 204 408.708 203.316 409.791 201.95C410.891 200.566 411.441 198.258 411.441 195.025V180.675H415.091V195.675C415.091 199.775 414.258 202.7 412.591 204.45C410.941 206.2 408.166 207.075 404.266 207.075ZM425.41 219.275V180.675H429.06V185.975C430.093 184.058 431.535 182.566 433.385 181.5C435.252 180.416 437.318 179.875 439.585 179.875C442.035 179.875 444.227 180.466 446.16 181.65C448.093 182.833 449.618 184.45 450.735 186.5C451.852 188.533 452.41 190.858 452.41 193.475C452.41 196.058 451.852 198.383 450.735 200.45C449.635 202.5 448.118 204.116 446.185 205.3C444.268 206.483 442.085 207.075 439.635 207.075C437.402 207.075 435.352 206.525 433.485 205.425C431.618 204.325 430.143 202.808 429.06 200.875V219.275H425.41ZM438.785 203.9C440.702 203.9 442.402 203.458 443.885 202.575C445.368 201.675 446.527 200.441 447.36 198.875C448.21 197.308 448.635 195.516 448.635 193.5C448.635 191.466 448.21 189.666 447.36 188.1C446.51 186.516 445.343 185.283 443.86 184.4C442.393 183.5 440.702 183.05 438.785 183.05C436.868 183.05 435.168 183.5 433.685 184.4C432.202 185.283 431.035 186.508 430.185 188.075C429.335 189.641 428.91 191.441 428.91 193.475C428.91 195.491 429.335 197.291 430.185 198.875C431.035 200.441 432.202 201.675 433.685 202.575C435.185 203.458 436.885 203.9 438.785 203.9Z" fill="black"/>
</g>
<path d="M245.768 200.56C240.916 198.703 235.925 198.418 231.35 199.703C228.161 200.56 225.111 202.275 222.339 204.418L220.398 206.132L219.843 206.703L221.091 207.846C221.229 207.846 221.23 207.989 221.368 208.132C221.645 208.418 221.923 208.56 222.339 208.846L223.17 209.418L224.002 208.703C224.141 208.56 224.418 208.275 224.695 208.132C227.191 205.989 229.964 204.56 232.875 203.846C236.618 202.846 240.639 202.989 244.659 204.56C247.986 205.846 254.78 207.418 262.959 203.846L263.236 203.703L263.652 203.275C263.652 203.132 263.791 203.132 263.93 202.989C264.623 202.132 265.316 201.275 265.87 200.275L268.643 195.846L264.207 198.417C257.691 202.132 251.73 202.846 245.768 200.56Z" fill="#FF0000"/>
<path d="M226.775 185.132C230.518 184.132 234.539 184.275 238.559 185.846C242.995 187.56 254.364 189.989 267.118 178.132L269.198 175.989L269.336 175.846L269.891 175.275L269.614 174.56C269.475 173.989 269.198 173.275 268.92 172.56L268.227 170.56L266.841 171.989C266.702 172.275 266.425 172.418 266.148 172.703C260.048 179.132 250.62 185.703 239.807 181.703C234.955 179.846 229.964 179.56 225.389 180.846C220.952 182.132 217.07 184.56 213.466 187.989V187.846L211.386 190.132C211.386 190.275 211.248 190.275 211.109 190.418L210.693 190.846L210.832 191.418C210.97 192.132 211.248 192.846 211.386 193.56L212.218 195.846L213.605 193.989C213.743 193.703 214.02 193.56 214.159 193.275C217.07 190.56 221.091 186.703 226.775 185.132Z" fill="#FF0000"/>
<path d="M213.327 182.56C216.516 179.132 220.12 176.989 224.002 175.846C227.745 174.846 231.766 174.989 235.786 176.56C248.264 181.275 259.077 173.56 263.791 169.418L265.593 167.56L266.286 166.989L265.732 166.132C265.316 165.703 265.039 165.132 264.623 164.56L263.791 163.417L262.82 164.417C262.682 164.56 262.405 164.846 262.266 164.989C256.443 170.703 247.432 176.56 237.173 172.56C232.32 170.703 227.33 170.418 222.755 171.703C219.843 172.56 217.07 173.989 214.298 175.846L211.386 178.275C211.109 178.56 210.97 178.703 210.693 178.989L210.416 179.275V179.703C210.277 180.703 210.277 181.703 210.139 182.56L210 186.132L212.357 183.56C212.634 183.275 212.911 182.846 213.327 182.56Z" fill="#FF0000"/>
<path d="M249.789 210.275L249.511 211.132L249.789 210.275C249.373 210.132 249.095 209.989 248.68 209.846C243.827 207.989 238.836 207.703 234.261 208.989C233.291 209.275 232.32 209.56 231.35 209.989L228.023 211.56L227.191 211.989L229.964 212.989C230.795 213.275 231.627 213.56 232.459 213.846L232.875 213.989L233.291 213.846C233.707 213.703 234.123 213.418 234.539 213.418C234.816 213.418 235.093 213.275 235.37 213.132C238.698 212.275 242.302 212.275 246.184 213.56C246.6 213.703 246.877 213.846 247.293 213.989L247.986 214.275L248.402 214.132C249.373 213.846 250.482 213.56 251.314 213.132L255.195 211.703L251.175 210.703C250.759 210.56 250.205 210.418 249.789 210.275Z" fill="#FF0000"/>
<path d="M271 180.703L268.921 182.846C268.643 183.132 268.366 183.417 268.089 183.703C262.405 189.275 253.255 195.275 242.996 191.275C238.143 189.417 233.152 189.132 228.577 190.418C224.28 191.703 220.398 193.989 216.932 197.417L215.13 199.417L214.575 200.132L215.13 200.989C215.546 201.56 215.823 201.989 216.1 202.56L216.932 203.846L217.902 202.56C218.041 202.418 218.318 202.132 218.457 201.989C221.784 198.275 225.389 195.989 229.548 194.846C233.291 193.846 237.311 193.989 241.332 195.56C244.798 196.846 248.402 197.275 252.007 196.846C258.384 196.132 264.761 192.418 269.475 188.275C269.752 187.989 270.03 187.846 270.307 187.56L270.723 187.132V186.703C270.723 185.846 270.861 184.846 270.861 183.989L271 180.703Z" fill="#FF0000"/>
<path d="M218.318 167.56L217.902 166.703L218.318 167.56C219.15 167.132 220.12 166.846 220.952 166.56C224.695 165.56 228.716 165.703 232.736 167.275C235.37 168.275 238.005 168.703 240.916 168.703C246.739 168.703 252.561 166.56 257.968 162.417L260.048 160.703L260.741 160.132L259.493 159.132C259.077 158.703 258.523 158.275 257.968 157.989L257.136 157.417L256.443 157.989C256.166 158.132 256.027 158.417 255.75 158.56C248.402 164.275 241.055 165.846 234.123 163.132C229.132 161.275 224.141 160.846 219.15 162.417C218.734 162.56 218.318 162.703 217.764 162.846L217.486 162.989L217.07 163.417C217.07 163.56 216.932 163.56 216.793 163.703C216.239 164.56 215.545 165.275 214.991 166.132L212.357 170.275L216.655 167.989C217.348 167.989 217.902 167.703 218.318 167.56Z" fill="#FF0000"/>
<path d="M229.686 157.846L230.102 157.989C231.905 158.703 234.677 159.418 238.143 159.418C241.748 159.418 245.214 158.56 248.68 157.132L252.977 154.989L250.066 153.989C249.234 153.703 248.402 153.418 247.432 153.275H247.016L246.6 153.417C246.184 153.56 245.768 153.846 245.352 153.989C241.193 155.56 237.034 155.846 233.014 154.703C232.598 154.56 232.182 154.417 231.766 154.275L231.35 154.132L230.934 154.275C230.102 154.56 229.27 154.846 228.439 155.275L225.25 156.703L228.577 157.703C228.855 157.56 229.27 157.703 229.686 157.846Z" fill="#FF0000"/>
<defs>
<filter id="filter0_d_130_6" x="11.1055" y="41.5268" width="352.757" height="136.376" filterUnits="userSpaceOnUse" color-interpolation-filters="sRGB">
<feFlood flood-opacity="0" result="BackgroundImageFix"/>
<feColorMatrix in="SourceAlpha" type="matrix" values="0 0 0 0 0 0 0 0 0 0 0 0 0 0 0 0 0 0 127 0" result="hardAlpha"/>
<feOffset dy="4"/>
<feGaussianBlur stdDeviation="2"/>
<feComposite in2="hardAlpha" operator="out"/>
<feColorMatrix type="matrix" values="0 0 0 0 0 0 0 0 0 0 0 0 0 0 0 0 0 0 0.25 0"/>
<feBlend mode="normal" in2="BackgroundImageFix" result="effect1_dropShadow_130_6"/>
<feBlend mode="normal" in="SourceGraphic" in2="effect1_dropShadow_130_6" result="shape"/>
</filter>
<filter id="filter1_d_130_6" x="284.25" y="164.275" width="172.16" height="63" filterUnits="userSpaceOnUse" color-interpolation-filters="sRGB">
<feFlood flood-opacity="0" result="BackgroundImageFix"/>
<feColorMatrix in="SourceAlpha" type="matrix" values="0 0 0 0 0 0 0 0 0 0 0 0 0 0 0 0 0 0 127 0" result="hardAlpha"/>
<feOffset dy="4"/>
<feGaussianBlur stdDeviation="2"/>
<feComposite in2="hardAlpha" operator="out"/>
<feColorMatrix type="matrix" values="0 0 0 0 0 0 0 0 0 0 0 0 0 0 0 0 0 0 0.25 0"/>
<feBlend mode="normal" in2="BackgroundImageFix" result="effect1_dropShadow_130_6"/>
<feBlend mode="normal" in="SourceGraphic" in2="effect1_dropShadow_130_6" result="shape"/>
</filter>
</defs>
</svg>
