<svg width="499" height="222" viewBox="0 0 499 222" fill="none" xmlns="http://www.w3.org/2000/svg">
<g filter="url(#filter0_d_102_3)">
<path d="M20.503 130.098L20.1883 6.3482L31.5883 6.31921L31.903 130.069L20.503 130.098ZM68.1618 129.977L67.9665 53.1768L78.9165 53.149L78.9432 63.649C81.034 60.0436 84.2763 56.9854 88.6699 54.4742C93.0635 51.963 98.4353 50.6994 104.785 50.6832C110.735 50.6681 115.863 51.88 120.17 54.3191C124.476 56.7581 127.785 60.3247 130.097 65.0189C132.409 69.663 133.573 75.2851 133.59 81.885L133.712 129.81L122.762 129.838L122.645 84.0129C122.625 76.0629 120.76 70.0176 117.049 65.8771C113.338 61.6865 108.108 59.5998 101.358 59.617C96.658 59.6289 92.6355 60.5891 89.2903 62.4976C85.995 64.356 83.4513 66.8375 81.6592 69.9421C79.867 72.9967 78.9754 76.3239 78.9846 79.9239L79.1118 129.949L68.1618 129.977ZM198.553 170.895C188.853 170.92 180.648 169.041 173.939 165.258C167.229 161.475 162.24 155.937 158.971 148.646L168.185 144.347C170.549 149.641 174.46 153.831 179.917 156.917C185.375 160.054 191.579 161.613 198.529 161.595C204.379 161.58 209.601 160.392 214.195 158.03C218.84 155.718 222.481 152.359 225.12 147.952C227.809 143.546 229.145 138.267 229.13 132.117L229.082 113.367C225.897 119.175 221.508 123.737 215.917 127.051C210.375 130.365 204.179 132.031 197.329 132.048C190.179 132.066 183.7 130.333 177.891 126.848C172.132 123.362 167.545 118.549 164.129 112.407C160.764 106.266 159.071 99.2453 159.051 91.3453C159.031 83.4954 160.688 76.5161 164.022 70.4076C167.357 64.2491 171.894 59.3876 177.635 55.8229C183.426 52.2582 189.997 50.4665 197.347 50.4478C204.147 50.4305 210.326 52.0398 215.884 55.2757C221.492 58.5114 225.854 63.0003 228.968 68.7424L228.928 52.7675L239.878 52.7396L240.078 131.639C240.1 140.139 238.443 147.294 235.108 153.102C231.773 158.961 226.984 163.373 220.742 166.339C214.549 169.354 207.153 170.873 198.553 170.895ZM199.93 122.516C205.73 122.502 210.852 121.164 215.295 118.502C219.738 115.791 223.229 112.082 225.767 107.376C228.305 102.619 229.566 97.241 229.551 91.241C229.535 85.1411 228.246 79.7443 225.684 75.0508C223.122 70.3073 219.613 66.6162 215.156 63.9776C210.699 61.2889 205.596 59.9519 199.846 59.9665C194.096 59.9811 188.999 61.3441 184.556 64.0554C180.113 66.7167 176.622 70.4256 174.085 75.182C171.547 79.8885 170.285 85.2917 170.301 91.3917C170.316 97.3917 171.58 102.764 174.092 107.507C176.654 112.201 180.163 115.892 184.62 118.58C189.127 121.219 194.23 122.531 199.93 122.516ZM307.634 131.768C299.584 131.788 292.38 130.031 286.02 126.498C279.711 122.964 274.749 118.151 271.134 112.06C267.518 105.92 265.701 99.0241 265.681 91.3741C265.666 85.6242 266.678 80.2716 268.715 75.3164C270.803 70.3111 273.691 65.9287 277.382 62.1693C281.072 58.4099 285.365 55.474 290.26 53.3615C295.154 51.2491 300.376 50.1858 305.926 50.1717C313.526 50.1523 320.281 51.8102 326.189 55.1451C332.148 58.43 336.859 62.993 340.324 68.8342C343.839 74.6753 345.706 81.4206 345.926 89.0701C345.927 89.6701 345.903 90.1701 345.854 90.5703C345.855 90.9203 345.806 91.3704 345.708 91.9206L276.558 92.0965C276.573 98.0965 277.937 103.393 280.648 107.986C283.36 112.579 287.069 116.195 291.776 118.833C296.533 121.421 301.961 122.707 308.061 122.691C313.861 122.677 319.058 121.464 323.652 119.052C328.295 116.59 332.162 113.08 335.25 108.522L343.361 112.852C339.726 118.811 334.763 123.449 328.471 126.765C322.23 130.08 315.284 131.748 307.634 131.768ZM277.137 83.845L334.962 83.6979C334.3 78.8996 332.614 74.6789 329.905 71.0358C327.195 67.3426 323.763 64.4513 319.607 62.3619C315.502 60.2723 311 59.2338 306.1 59.2463C301.05 59.2591 296.452 60.3208 292.308 62.4313C288.163 64.4919 284.745 67.3756 282.055 71.0824C279.414 74.7392 277.775 78.9934 277.137 83.845ZM371.53 129.205L371.335 52.4053L382.285 52.3775L382.311 62.8774C384.402 59.2721 387.644 56.2139 392.038 53.7027C396.432 51.1915 401.803 49.9278 408.153 49.9117C414.103 49.8966 419.232 51.1085 423.538 53.5476C427.844 55.9866 431.153 59.5532 433.465 64.2474C435.777 68.8915 436.941 74.5135 436.958 81.1135L437.08 129.038L426.13 129.066L426.013 83.2414C425.993 75.2914 424.128 69.2461 420.417 65.1055C416.706 60.915 411.476 58.8283 404.726 58.8454C400.026 58.8574 396.004 59.8176 392.658 61.7261C389.363 63.5845 386.819 66.066 385.027 69.1706C383.235 72.2251 382.344 75.5524 382.353 79.1524L382.48 129.177L371.53 129.205Z" fill="black"/>
</g>
<g filter="url(#filter1_d_102_3)">
<path d="M350.55 201.8C347.683 201.8 345.017 201.25 342.55 200.15C340.1 199.05 337.95 197.525 336.1 195.575C334.267 193.625 332.833 191.358 331.8 188.775C330.767 186.175 330.25 183.383 330.25 180.4C330.25 177.65 330.708 174.992 331.625 172.425C332.542 169.858 333.883 167.575 335.65 165.575C337.417 163.558 339.575 161.958 342.125 160.775C344.692 159.592 347.6 159 350.85 159C352.983 159 355 159.267 356.9 159.8C358.8 160.333 360.542 161.075 362.125 162.025C363.725 162.975 365.117 164.092 366.3 165.375L364.325 168.275C362.758 166.492 360.792 165.067 358.425 164C356.058 162.917 353.517 162.375 350.8 162.375C348.2 162.375 345.875 162.858 343.825 163.825C341.792 164.792 340.067 166.117 338.65 167.8C337.233 169.467 336.158 171.375 335.425 173.525C334.692 175.658 334.325 177.908 334.325 180.275C334.325 182.825 334.733 185.2 335.55 187.4C336.383 189.583 337.542 191.5 339.025 193.15C340.508 194.783 342.242 196.058 344.225 196.975C346.208 197.875 348.342 198.325 350.625 198.325C352.475 198.325 354.292 198.017 356.075 197.4C357.858 196.783 359.458 195.892 360.875 194.725C362.308 193.558 363.442 192.167 364.275 190.55C365.125 188.917 365.55 187.083 365.55 185.05V183.625H350.35V180.55H369.45V184.225C369.45 187.142 368.9 189.7 367.8 191.9C366.7 194.1 365.233 195.933 363.4 197.4C361.567 198.85 359.533 199.95 357.3 200.7C355.067 201.433 352.817 201.8 350.55 201.8ZM378.689 201V175.4H382.339V179.175C383.156 177.675 384.206 176.542 385.489 175.775C386.789 174.992 388.289 174.6 389.989 174.6C390.739 174.6 391.498 174.683 392.264 174.85C393.048 175.017 393.723 175.233 394.289 175.5L392.789 178.575C392.289 178.325 391.714 178.133 391.064 178C390.431 177.867 389.823 177.8 389.239 177.8C388.056 177.8 386.939 178.1 385.889 178.7C384.839 179.3 383.981 180.083 383.314 181.05C382.664 182 382.339 183.017 382.339 184.1V201H378.689ZM412.936 201.8C410.269 201.8 407.861 201.225 405.711 200.075C403.578 198.925 401.886 197.325 400.636 195.275C399.386 193.225 398.761 190.867 398.761 188.2C398.761 185.517 399.386 183.158 400.636 181.125C401.886 179.075 403.578 177.475 405.711 176.325C407.844 175.175 410.253 174.6 412.936 174.6C415.603 174.6 418.003 175.175 420.136 176.325C422.286 177.475 423.986 179.075 425.236 181.125C426.486 183.158 427.111 185.517 427.111 188.2C427.111 190.867 426.486 193.225 425.236 195.275C423.986 197.325 422.286 198.925 420.136 200.075C418.003 201.225 415.603 201.8 412.936 201.8ZM412.936 198.55C414.936 198.55 416.719 198.108 418.286 197.225C419.853 196.342 421.086 195.125 421.986 193.575C422.886 192.008 423.336 190.217 423.336 188.2C423.336 186.183 422.886 184.4 421.986 182.85C421.086 181.283 419.853 180.058 418.286 179.175C416.719 178.292 414.936 177.85 412.936 177.85C410.936 177.85 409.153 178.292 407.586 179.175C406.019 180.058 404.786 181.283 403.886 182.85C402.986 184.4 402.536 186.183 402.536 188.2C402.536 190.2 402.986 191.983 403.886 193.55C404.786 195.117 406.019 196.342 407.586 197.225C409.153 198.108 410.936 198.55 412.936 198.55ZM446.266 201.8C442.383 201.8 439.608 200.925 437.941 199.175C436.274 197.425 435.441 194.5 435.441 190.4V175.4H439.091V189.75C439.091 192.983 439.641 195.292 440.741 196.675C441.841 198.042 443.683 198.725 446.266 198.725C448.866 198.725 450.708 198.042 451.791 196.675C452.891 195.292 453.441 192.983 453.441 189.75V175.4H457.091V190.4C457.091 194.5 456.258 197.425 454.591 199.175C452.941 200.925 450.166 201.8 446.266 201.8ZM467.41 214V175.4H471.06V180.7C472.093 178.783 473.535 177.292 475.385 176.225C477.252 175.142 479.318 174.6 481.585 174.6C484.035 174.6 486.227 175.192 488.16 176.375C490.093 177.558 491.618 179.175 492.735 181.225C493.852 183.258 494.41 185.583 494.41 188.2C494.41 190.783 493.852 193.108 492.735 195.175C491.635 197.225 490.118 198.842 488.185 200.025C486.268 201.208 484.085 201.8 481.635 201.8C479.402 201.8 477.352 201.25 475.485 200.15C473.618 199.05 472.143 197.533 471.06 195.6V214H467.41ZM480.785 198.625C482.702 198.625 484.402 198.183 485.885 197.3C487.368 196.4 488.527 195.167 489.36 193.6C490.21 192.033 490.635 190.242 490.635 188.225C490.635 186.192 490.21 184.392 489.36 182.825C488.51 181.242 487.343 180.008 485.86 179.125C484.393 178.225 482.702 177.775 480.785 177.775C478.868 177.775 477.168 178.225 475.685 179.125C474.202 180.008 473.035 181.233 472.185 182.8C471.335 184.367 470.91 186.167 470.91 188.2C470.91 190.217 471.335 192.017 472.185 193.6C473.035 195.167 474.202 196.4 475.685 197.3C477.185 198.183 478.885 198.625 480.785 198.625Z" fill="black"/>
</g>
<defs>
<filter id="filter0_d_102_3" x="16.1883" y="5.28876" width="424.996" height="174.059" filterUnits="userSpaceOnUse" color-interpolation-filters="sRGB">
<feFlood flood-opacity="0" result="BackgroundImageFix"/>
<feColorMatrix in="SourceAlpha" type="matrix" values="0 0 0 0 0 0 0 0 0 0 0 0 0 0 0 0 0 0 127 0" result="hardAlpha"/>
<feOffset dy="4"/>
<feGaussianBlur stdDeviation="2"/>
<feComposite in2="hardAlpha" operator="out"/>
<feColorMatrix type="matrix" values="0 0 0 0 0 0 0 0 0 0 0 0 0 0 0 0 0 0 0.25 0"/>
<feBlend mode="normal" in2="BackgroundImageFix" result="effect1_dropShadow_102_3"/>
<feBlend mode="normal" in="SourceGraphic" in2="effect1_dropShadow_102_3" result="shape"/>
</filter>
<filter id="filter1_d_102_3" x="326.25" y="159" width="172.16" height="63" filterUnits="userSpaceOnUse" color-interpolation-filters="sRGB">
<feFlood flood-opacity="0" result="BackgroundImageFix"/>
<feColorMatrix in="SourceAlpha" type="matrix" values="0 0 0 0 0 0 0 0 0 0 0 0 0 0 0 0 0 0 127 0" result="hardAlpha"/>
<feOffset dy="4"/>
<feGaussianBlur stdDeviation="2"/>
<feComposite in2="hardAlpha" operator="out"/>
<feColorMatrix type="matrix" values="0 0 0 0 0 0 0 0 0 0 0 0 0 0 0 0 0 0 0.25 0"/>
<feBlend mode="normal" in2="BackgroundImageFix" result="effect1_dropShadow_102_3"/>
<feBlend mode="normal" in="SourceGraphic" in2="effect1_dropShadow_102_3" result="shape"/>
</filter>
</defs>
</svg>
