<svg width="815" height="386" viewBox="0 0 815 386" fill="none" xmlns="http://www.w3.org/2000/svg">
<g filter="url(#filter0_d_102_3)">
<g filter="url(#filter1_i_102_3)">
<path d="M267.167 127.889C181.786 228.606 93.3211 237.87 38.6016 228.501C38.5616 173.694 55.9822 117.735 207.699 39.9845C256.382 6.97581 30.008 157.548 63.0314 206.363C96.0549 255.178 315.85 94.88 267.167 127.889Z" fill="#FF0000"/>
<path d="M148.36 127.802C233.888 228.644 322.366 238.038 377.072 228.749C377.032 173.943 359.53 117.957 207.699 39.9845C158.968 6.9044 385.562 157.809 352.61 206.575C319.658 255.342 99.6287 94.7217 148.36 127.802Z" fill="#FF0000"/>
<path d="M265.895 129.382C266.319 128.886 266.743 128.389 267.167 127.889C277.621 120.8 275.694 122.626 265.895 129.382C250.971 146.822 235.959 161.481 221.054 173.747C216.552 171.216 212.119 168.669 207.791 166.135C232.992 151.407 254.638 137.142 265.895 129.382Z" fill="#FF0000"/>
</g>
</g>
<g filter="url(#filter2_d_102_3)">
<path d="M201.337 189.462L200.918 24.4626L216.118 24.4239L216.537 189.423L201.337 189.462ZM264.882 189.3L264.622 86.9008L279.222 86.8636L279.258 100.864C282.045 96.0565 286.368 91.9788 292.227 88.6306C298.085 85.2823 305.247 83.5974 313.714 83.5759C321.647 83.5557 328.485 85.1717 334.226 88.4237C339.968 91.6758 344.38 96.4313 347.462 102.69C350.545 108.882 352.097 116.378 352.12 125.178L352.282 189.078L337.682 189.115L337.527 128.015C337.5 117.416 335.013 109.355 330.065 103.834C325.118 98.2469 318.144 95.4647 309.144 95.4876C302.877 95.5035 297.514 96.7838 293.054 99.3285C288.66 101.806 285.268 105.115 282.879 109.254C280.489 113.327 279.301 117.764 279.313 122.564L279.482 189.263L264.882 189.3ZM438.737 243.858C425.804 243.891 414.864 241.386 405.918 236.342C396.972 231.298 390.32 223.915 385.962 214.193L398.247 208.461C401.399 215.52 406.613 221.107 413.89 225.222C421.167 229.403 429.439 231.482 438.706 231.459C446.506 231.439 453.468 229.854 459.594 226.705C465.786 223.623 470.641 219.144 474.16 213.268C477.745 207.392 479.527 200.355 479.506 192.155L479.442 167.155C475.195 174.899 469.344 180.98 461.889 185.399C454.5 189.818 446.239 192.039 437.106 192.062C427.572 192.087 418.933 189.775 411.188 185.128C403.509 180.481 397.393 174.063 392.839 165.875C388.351 157.686 386.094 148.325 386.067 137.792C386.041 127.325 388.251 118.02 392.696 109.875C397.142 101.664 403.192 95.1817 410.847 90.4289C418.568 85.6759 427.329 83.287 437.129 83.262C446.196 83.239 454.434 85.3847 461.845 89.6992C469.323 94.0135 475.138 99.9987 479.291 107.655L479.237 86.3549L493.837 86.3178L494.104 191.517C494.133 202.851 491.924 212.39 487.477 220.134C483.03 227.946 476.645 233.829 468.322 237.783C460.066 241.804 450.204 243.829 438.737 243.858ZM440.573 179.354C448.307 179.334 455.135 177.55 461.06 174.001C466.984 170.386 471.638 165.441 475.022 159.166C478.406 152.824 480.088 145.653 480.067 137.653C480.047 129.52 478.328 122.324 474.913 116.066C471.496 109.741 466.817 104.82 460.875 101.302C454.932 97.7168 448.128 95.9341 440.461 95.9536C432.795 95.9731 425.999 97.7904 420.075 101.405C414.151 104.954 409.497 109.899 406.113 116.241C402.729 122.516 401.047 129.721 401.068 137.854C401.088 145.854 402.773 153.016 406.122 159.341C409.538 165.599 414.217 170.521 420.16 174.105C426.169 177.624 432.973 179.373 440.573 179.354ZM584.179 191.688C573.445 191.716 563.839 189.373 555.361 184.662C546.949 179.95 540.332 173.533 535.512 165.412C530.691 157.224 528.267 148.03 528.241 137.83C528.222 130.164 529.57 123.027 532.287 116.42C535.07 109.746 538.922 103.903 543.842 98.8907C548.763 93.8782 554.486 89.9636 561.013 87.147C567.539 84.3304 574.502 82.9127 581.902 82.8938C592.035 82.8681 601.041 85.0785 608.919 89.5252C616.863 93.905 623.146 99.989 627.765 107.777C632.452 115.565 634.941 124.559 635.234 134.758C635.236 135.558 635.204 136.225 635.139 136.759C635.14 137.225 635.075 137.825 634.944 138.559L542.744 138.794C542.764 146.794 544.582 153.856 548.198 159.98C551.813 166.104 556.759 170.925 563.035 174.442C569.377 177.893 576.615 179.608 584.748 179.587C592.481 179.567 599.41 177.95 605.536 174.734C611.727 171.452 616.882 166.772 621 160.695L631.815 166.467C626.968 174.413 620.351 180.596 611.962 185.018C603.64 189.439 594.379 191.662 584.179 191.688ZM543.516 127.792L620.616 127.596C619.733 121.198 617.485 115.57 613.873 110.713C610.26 105.788 605.684 101.933 600.143 99.1475C594.67 96.3614 588.666 94.9767 582.133 94.9933C575.399 95.0104 569.27 96.426 563.743 99.2401C558.217 101.987 553.66 105.832 550.073 110.775C546.552 115.651 544.366 121.323 543.516 127.792ZM669.373 188.272L669.113 85.8721L683.713 85.8349L683.748 99.8349C686.536 95.0278 690.859 90.9501 696.717 87.6019C702.576 84.2536 709.738 82.5687 718.205 82.5472C726.138 82.527 732.975 84.143 738.717 87.395C744.459 90.6471 748.871 95.4026 751.953 101.661C755.036 107.854 756.588 115.35 756.611 124.15L756.773 188.049L742.173 188.087L742.018 126.987C741.991 116.387 739.504 108.326 734.556 102.806C729.609 97.2182 722.635 94.436 713.635 94.4589C707.368 94.4748 702.005 95.7551 697.545 98.2998C693.151 100.778 689.759 104.086 687.37 108.226C684.98 112.298 683.791 116.735 683.804 121.535L683.973 188.235L669.373 188.272Z" fill="black"/>
</g>
<g filter="url(#filter3_d_102_3)">
<path d="M608.37 284.12C604.357 284.12 600.623 283.35 597.17 281.81C593.74 280.27 590.73 278.135 588.14 275.405C585.573 272.675 583.567 269.502 582.12 265.885C580.673 262.245 579.95 258.337 579.95 254.16C579.95 250.31 580.592 246.588 581.875 242.995C583.158 239.402 585.037 236.205 587.51 233.405C589.983 230.582 593.005 228.342 596.575 226.685C600.168 225.028 604.24 224.2 608.79 224.2C611.777 224.2 614.6 224.573 617.26 225.32C619.92 226.067 622.358 227.105 624.575 228.435C626.815 229.765 628.763 231.328 630.42 233.125L627.655 237.185C625.462 234.688 622.708 232.693 619.395 231.2C616.082 229.683 612.523 228.925 608.72 228.925C605.08 228.925 601.825 229.602 598.955 230.955C596.108 232.308 593.693 234.163 591.71 236.52C589.727 238.853 588.222 241.525 587.195 244.535C586.168 247.522 585.655 250.672 585.655 253.985C585.655 257.555 586.227 260.88 587.37 263.96C588.537 267.017 590.158 269.7 592.235 272.01C594.312 274.297 596.738 276.082 599.515 277.365C602.292 278.625 605.278 279.255 608.475 279.255C611.065 279.255 613.608 278.823 616.105 277.96C618.602 277.097 620.842 275.848 622.825 274.215C624.832 272.582 626.418 270.633 627.585 268.37C628.775 266.083 629.37 263.517 629.37 260.67V258.675H608.09V254.37H634.83V259.515C634.83 263.598 634.06 267.18 632.52 270.26C630.98 273.34 628.927 275.907 626.36 277.96C623.793 279.99 620.947 281.53 617.82 282.58C614.693 283.607 611.543 284.12 608.37 284.12ZM647.765 283V247.16H652.875V252.445C654.019 250.345 655.489 248.758 657.285 247.685C659.105 246.588 661.205 246.04 663.585 246.04C664.635 246.04 665.697 246.157 666.77 246.39C667.867 246.623 668.812 246.927 669.605 247.3L667.505 251.605C666.805 251.255 666 250.987 665.09 250.8C664.204 250.613 663.352 250.52 662.535 250.52C660.879 250.52 659.315 250.94 657.845 251.78C656.375 252.62 655.174 253.717 654.24 255.07C653.33 256.4 652.875 257.823 652.875 259.34V283H647.765ZM695.71 284.12C691.977 284.12 688.605 283.315 685.595 281.705C682.609 280.095 680.24 277.855 678.49 274.985C676.74 272.115 675.865 268.813 675.865 265.08C675.865 261.323 676.74 258.022 678.49 255.175C680.24 252.305 682.609 250.065 685.595 248.455C688.582 246.845 691.954 246.04 695.71 246.04C699.444 246.04 702.804 246.845 705.79 248.455C708.8 250.065 711.18 252.305 712.93 255.175C714.68 258.022 715.555 261.323 715.555 265.08C715.555 268.813 714.68 272.115 712.93 274.985C711.18 277.855 708.8 280.095 705.79 281.705C702.804 283.315 699.444 284.12 695.71 284.12ZM695.71 279.57C698.51 279.57 701.007 278.952 703.2 277.715C705.394 276.478 707.12 274.775 708.38 272.605C709.64 270.412 710.27 267.903 710.27 265.08C710.27 262.257 709.64 259.76 708.38 257.59C707.12 255.397 705.394 253.682 703.2 252.445C701.007 251.208 698.51 250.59 695.71 250.59C692.91 250.59 690.414 251.208 688.22 252.445C686.027 253.682 684.3 255.397 683.04 257.59C681.78 259.76 681.15 262.257 681.15 265.08C681.15 267.88 681.78 270.377 683.04 272.57C684.3 274.763 686.027 276.478 688.22 277.715C690.414 278.952 692.91 279.57 695.71 279.57ZM742.372 284.12C736.936 284.12 733.051 282.895 730.717 280.445C728.384 277.995 727.217 273.9 727.217 268.16V247.16H732.327V267.25C732.327 271.777 733.097 275.008 734.637 276.945C736.177 278.858 738.756 279.815 742.372 279.815C746.012 279.815 748.591 278.858 750.107 276.945C751.647 275.008 752.417 271.777 752.417 267.25V247.16H757.527V268.16C757.527 273.9 756.361 277.995 754.027 280.445C751.717 282.895 747.832 284.12 742.372 284.12ZM771.974 301.2V247.16H777.084V254.58C778.531 251.897 780.549 249.808 783.139 248.315C785.753 246.798 788.646 246.04 791.819 246.04C795.249 246.04 798.318 246.868 801.024 248.525C803.731 250.182 805.866 252.445 807.429 255.315C808.993 258.162 809.774 261.417 809.774 265.08C809.774 268.697 808.993 271.952 807.429 274.845C805.889 277.715 803.766 279.978 801.059 281.635C798.376 283.292 795.319 284.12 791.889 284.12C788.763 284.12 785.893 283.35 783.279 281.81C780.666 280.27 778.601 278.147 777.084 275.44V301.2H771.974ZM790.699 279.675C793.383 279.675 795.763 279.057 797.839 277.82C799.916 276.56 801.538 274.833 802.704 272.64C803.894 270.447 804.489 267.938 804.489 265.115C804.489 262.268 803.894 259.748 802.704 257.555C801.514 255.338 799.881 253.612 797.804 252.375C795.751 251.115 793.383 250.485 790.699 250.485C788.016 250.485 785.636 251.115 783.559 252.375C781.483 253.612 779.849 255.327 778.659 257.52C777.469 259.713 776.874 262.233 776.874 265.08C776.874 267.903 777.469 270.423 778.659 272.64C779.849 274.833 781.483 276.56 783.559 277.82C785.659 279.057 788.039 279.675 790.699 279.675Z" fill="black"/>
</g>
<defs>
<filter id="filter0_d_102_3" x="34.6016" y="35.2903" width="346.471" height="204.235" filterUnits="userSpaceOnUse" color-interpolation-filters="sRGB">
<feFlood flood-opacity="0" result="BackgroundImageFix"/>
<feColorMatrix in="SourceAlpha" type="matrix" values="0 0 0 0 0 0 0 0 0 0 0 0 0 0 0 0 0 0 127 0" result="hardAlpha"/>
<feOffset dy="4"/>
<feGaussianBlur stdDeviation="2"/>
<feComposite in2="hardAlpha" operator="out"/>
<feColorMatrix type="matrix" values="0 0 0 0 0 0 0 0 0 0 0 0 0 0 0 0 0 0 0.25 0"/>
<feBlend mode="normal" in2="BackgroundImageFix" result="effect1_dropShadow_102_3"/>
<feBlend mode="normal" in="SourceGraphic" in2="effect1_dropShadow_102_3" result="shape"/>
</filter>
<filter id="filter1_i_102_3" x="38.6016" y="35.2903" width="338.471" height="200.235" filterUnits="userSpaceOnUse" color-interpolation-filters="sRGB">
<feFlood flood-opacity="0" result="BackgroundImageFix"/>
<feBlend mode="normal" in="SourceGraphic" in2="BackgroundImageFix" result="shape"/>
<feColorMatrix in="SourceAlpha" type="matrix" values="0 0 0 0 0 0 0 0 0 0 0 0 0 0 0 0 0 0 127 0" result="hardAlpha"/>
<feOffset dy="4"/>
<feGaussianBlur stdDeviation="2"/>
<feComposite in2="hardAlpha" operator="arithmetic" k2="-1" k3="1"/>
<feColorMatrix type="matrix" values="0 0 0 0 0 0 0 0 0 0 0 0 0 0 0 0 0 0 0.25 0"/>
<feBlend mode="normal" in2="shape" result="effect1_innerShadow_102_3"/>
</filter>
<filter id="filter2_d_102_3" x="196.918" y="23.05" width="563.995" height="229.412" filterUnits="userSpaceOnUse" color-interpolation-filters="sRGB">
<feFlood flood-opacity="0" result="BackgroundImageFix"/>
<feColorMatrix in="SourceAlpha" type="matrix" values="0 0 0 0 0 0 0 0 0 0 0 0 0 0 0 0 0 0 127 0" result="hardAlpha"/>
<feOffset dy="4"/>
<feGaussianBlur stdDeviation="2"/>
<feComposite in2="hardAlpha" operator="out"/>
<feColorMatrix type="matrix" values="0 0 0 0 0 0 0 0 0 0 0 0 0 0 0 0 0 0 0.25 0"/>
<feBlend mode="normal" in2="BackgroundImageFix" result="effect1_dropShadow_102_3"/>
<feBlend mode="normal" in="SourceGraphic" in2="effect1_dropShadow_102_3" result="shape"/>
</filter>
<filter id="filter3_d_102_3" x="575.95" y="224.2" width="237.824" height="85" filterUnits="userSpaceOnUse" color-interpolation-filters="sRGB">
<feFlood flood-opacity="0" result="BackgroundImageFix"/>
<feColorMatrix in="SourceAlpha" type="matrix" values="0 0 0 0 0 0 0 0 0 0 0 0 0 0 0 0 0 0 127 0" result="hardAlpha"/>
<feOffset dy="4"/>
<feGaussianBlur stdDeviation="2"/>
<feComposite in2="hardAlpha" operator="out"/>
<feColorMatrix type="matrix" values="0 0 0 0 0 0 0 0 0 0 0 0 0 0 0 0 0 0 0.25 0"/>
<feBlend mode="normal" in2="BackgroundImageFix" result="effect1_dropShadow_102_3"/>
<feBlend mode="normal" in="SourceGraphic" in2="effect1_dropShadow_102_3" result="shape"/>
</filter>
</defs>
</svg>
