<svg width="794" height="271" viewBox="0 0 794 271" fill="none" xmlns="http://www.w3.org/2000/svg">
<g filter="url(#filter0_d_102_3)">
<path d="M326.683 127.054L326.381 8.25448L337.325 8.22665L337.627 127.026L326.683 127.054ZM372.436 126.938L372.248 53.21L382.76 53.1832L382.786 63.2632C384.793 59.8021 387.906 56.8662 392.124 54.4554C396.341 52.0447 401.498 50.8316 407.594 50.8161C413.306 50.8016 418.229 51.965 422.363 54.3065C426.497 56.648 429.674 60.072 431.893 64.5783C434.113 69.0367 435.23 74.4339 435.247 80.7699L435.364 126.778L424.852 126.804L424.74 82.8126C424.72 75.1806 422.93 69.3771 419.367 65.4022C415.805 61.3792 410.784 59.376 404.304 59.3925C399.792 59.404 395.93 60.3258 392.719 62.1579C389.556 63.942 387.114 66.3242 385.393 69.3046C383.673 72.237 382.817 75.4312 382.826 78.8872L382.948 126.911L372.436 126.938ZM497.611 166.22C488.299 166.243 480.423 164.439 473.981 160.808C467.54 157.176 462.751 151.86 459.613 144.86L468.458 140.734C470.727 145.816 474.482 149.838 479.721 152.801C484.961 155.812 490.917 157.309 497.589 157.292C503.205 157.277 508.218 156.137 512.628 153.869C517.086 151.65 520.582 148.425 523.115 144.195C525.697 139.964 526.98 134.897 526.965 128.993L526.919 110.993C523.861 116.569 519.648 120.947 514.28 124.129C508.96 127.311 503.012 128.91 496.436 128.926C489.573 128.944 483.352 127.28 477.776 123.934C472.247 120.588 467.843 115.967 464.564 110.071C461.333 104.176 459.708 97.4357 459.689 89.8517C459.67 82.3157 461.261 75.6157 464.462 69.7515C467.663 63.8394 472.019 59.1723 477.53 55.7502C483.09 52.3281 489.397 50.608 496.453 50.5901C502.981 50.5735 508.913 52.1184 514.249 55.2249C519.633 58.3312 523.82 62.6405 526.81 68.1529L526.771 52.817L537.283 52.7903L537.476 128.534C537.496 136.694 535.906 143.562 532.704 149.138C529.502 154.762 524.905 158.998 518.912 161.845C512.968 164.74 505.867 166.199 497.611 166.22ZM498.933 119.776C504.501 119.762 509.418 118.477 513.683 115.922C517.949 113.32 521.3 109.759 523.736 105.241C526.173 100.675 527.384 95.5116 527.369 89.7516C527.354 83.8956 526.117 78.7147 523.657 74.209C521.198 69.6552 517.829 66.1118 513.55 63.5787C509.272 60.9975 504.372 59.714 498.853 59.728C493.333 59.7421 488.44 61.0505 484.174 63.6534C479.909 66.2082 476.558 69.7688 474.122 74.335C471.685 78.8532 470.474 84.0403 470.489 89.8963C470.504 95.6562 471.717 100.813 474.128 105.367C476.588 109.873 479.957 113.416 484.236 115.997C488.562 118.53 493.461 119.79 498.933 119.776ZM602.329 128.657C594.601 128.677 587.685 126.99 581.58 123.598C575.523 120.205 570.76 115.585 567.289 109.738C563.818 103.843 562.073 97.2234 562.054 89.8794C562.04 84.3594 563.011 79.2209 564.967 74.4639C566.971 69.6588 569.744 65.4518 573.287 61.8427C576.83 58.2337 580.951 55.4152 585.65 53.3873C590.348 51.3593 595.362 50.3386 600.69 50.325C607.986 50.3064 614.47 51.898 620.142 55.0995C625.862 58.253 630.385 62.6335 633.711 68.2411C637.086 73.8485 638.878 80.324 639.089 87.6675C639.09 88.2435 639.068 88.7235 639.021 89.1076C639.021 89.4436 638.975 89.8758 638.88 90.404L572.496 90.5728C572.511 96.3328 573.82 101.418 576.423 105.827C579.026 110.236 582.587 113.707 587.105 116.24C591.672 118.724 596.883 119.959 602.739 119.944C608.307 119.93 613.296 118.765 617.706 116.45C622.164 114.087 625.875 110.717 628.84 106.342L636.627 110.498C633.137 116.219 628.373 120.671 622.333 123.854C616.341 127.037 609.673 128.638 602.329 128.657ZM573.052 82.6514L628.564 82.5102C627.928 77.9038 626.31 73.8519 623.709 70.3545C621.108 66.8091 617.813 64.0335 613.824 62.0276C609.882 60.0217 605.56 59.0246 600.856 59.0366C596.008 59.0489 591.595 60.0682 587.616 62.0943C583.637 64.0724 580.356 66.8408 577.773 70.3993C575.238 73.9098 573.664 77.9938 573.052 82.6514ZM663.669 126.197L663.482 52.4693L673.994 52.4426L674.019 62.5225C676.027 59.0614 679.139 56.1255 683.357 53.7148C687.575 51.304 692.732 50.0909 698.828 50.0754C704.54 50.0609 709.463 51.2244 713.597 53.5659C717.731 55.9074 720.907 59.3313 723.127 63.8377C725.346 68.296 726.464 73.6932 726.48 80.0292L726.597 126.037L716.085 126.064L715.973 82.0719C715.954 74.4399 714.163 68.6365 710.601 64.6615C707.039 60.6386 702.018 58.6353 695.538 58.6518C691.026 58.6633 687.164 59.5851 683.953 61.4173C680.789 63.2013 678.347 65.5836 676.627 68.5639C674.906 71.4963 674.05 74.6905 674.059 78.1465L674.181 126.17L663.669 126.197Z" fill="black"/>
</g>
<g filter="url(#filter1_d_102_3)">
<g filter="url(#filter2_i_102_3)">
<path d="M205.792 89.7871C140.025 160.498 71.8829 167.002 29.7339 160.424C29.703 121.946 43.1217 82.6582 159.985 28.072C197.485 4.89752 23.1144 110.61 48.5515 144.882C73.9886 179.153 243.291 66.6126 205.792 89.7871Z" fill="#CC0505"/>
<path d="M114.278 89.7261C180.158 160.525 248.311 167.12 290.449 160.599C290.418 122.12 276.937 82.8144 159.985 28.072C122.449 4.84739 296.989 110.793 271.606 145.031C246.224 179.269 76.7415 66.5015 114.278 89.7261Z" fill="#CC0505"/>
<path d="M204.812 90.8352C205.139 90.4874 205.465 90.138 205.792 89.7871C213.844 84.8104 212.36 86.0925 204.812 90.8352C193.317 103.079 181.753 113.371 170.272 121.983C166.804 120.206 163.39 118.418 160.056 116.639C179.468 106.299 196.141 96.2835 204.812 90.8352Z" fill="#CC0505"/>
</g>
</g>
<g filter="url(#filter3_d_102_3)">
<path d="M651.568 177.689C648.816 177.689 646.256 177.161 643.888 176.105C641.536 175.049 639.472 173.585 637.696 171.713C635.936 169.841 634.56 167.665 633.568 165.185C632.576 162.689 632.08 160.009 632.08 157.145C632.08 154.505 632.52 151.953 633.4 149.489C634.28 147.025 635.568 144.833 637.264 142.913C638.96 140.977 641.032 139.441 643.48 138.305C645.944 137.169 648.736 136.601 651.856 136.601C653.904 136.601 655.84 136.857 657.664 137.369C659.488 137.881 661.16 138.593 662.68 139.505C664.216 140.417 665.552 141.489 666.688 142.721L664.792 145.505C663.288 143.793 661.4 142.425 659.128 141.401C656.856 140.361 654.416 139.841 651.808 139.841C649.312 139.841 647.08 140.305 645.112 141.233C643.16 142.161 641.504 143.433 640.144 145.049C638.784 146.649 637.752 148.481 637.048 150.545C636.344 152.593 635.992 154.753 635.992 157.025C635.992 159.473 636.384 161.753 637.168 163.865C637.968 165.961 639.08 167.801 640.504 169.385C641.928 170.953 643.592 172.177 645.496 173.057C647.4 173.921 649.448 174.353 651.64 174.353C653.416 174.353 655.16 174.057 656.872 173.465C658.584 172.873 660.12 172.017 661.48 170.897C662.856 169.777 663.944 168.441 664.744 166.889C665.56 165.321 665.968 163.561 665.968 161.609V160.241H651.376V157.289H669.712V160.817C669.712 163.617 669.184 166.073 668.128 168.185C667.072 170.297 665.664 172.057 663.904 173.465C662.144 174.857 660.192 175.913 658.048 176.633C655.904 177.337 653.744 177.689 651.568 177.689ZM678.582 176.921V152.345H682.086V155.969C682.87 154.529 683.878 153.441 685.11 152.705C686.358 151.953 687.798 151.577 689.43 151.577C690.15 151.577 690.878 151.657 691.614 151.817C692.366 151.977 693.014 152.185 693.558 152.441L692.118 155.393C691.638 155.153 691.086 154.969 690.462 154.841C689.854 154.713 689.27 154.649 688.71 154.649C687.574 154.649 686.502 154.937 685.494 155.513C684.486 156.089 683.662 156.841 683.022 157.769C682.398 158.681 682.086 159.657 682.086 160.697V176.921H678.582ZM711.459 177.689C708.899 177.689 706.587 177.137 704.523 176.033C702.475 174.929 700.851 173.393 699.651 171.425C698.451 169.457 697.851 167.193 697.851 164.633C697.851 162.057 698.451 159.793 699.651 157.841C700.851 155.873 702.475 154.337 704.523 153.233C706.571 152.129 708.883 151.577 711.459 151.577C714.019 151.577 716.323 152.129 718.371 153.233C720.435 154.337 722.067 155.873 723.267 157.841C724.467 159.793 725.067 162.057 725.067 164.633C725.067 167.193 724.467 169.457 723.267 171.425C722.067 173.393 720.435 174.929 718.371 176.033C716.323 177.137 714.019 177.689 711.459 177.689ZM711.459 174.569C713.379 174.569 715.091 174.145 716.595 173.297C718.099 172.449 719.283 171.281 720.147 169.793C721.011 168.289 721.443 166.569 721.443 164.633C721.443 162.697 721.011 160.985 720.147 159.497C719.283 157.993 718.099 156.817 716.595 155.969C715.091 155.121 713.379 154.697 711.459 154.697C709.539 154.697 707.827 155.121 706.323 155.969C704.819 156.817 703.635 157.993 702.771 159.497C701.907 160.985 701.475 162.697 701.475 164.633C701.475 166.553 701.907 168.265 702.771 169.769C703.635 171.273 704.819 172.449 706.323 173.297C707.827 174.145 709.539 174.569 711.459 174.569ZM743.455 177.689C739.727 177.689 737.063 176.849 735.463 175.169C733.863 173.489 733.063 170.681 733.063 166.745V152.345H736.567V166.121C736.567 169.225 737.095 171.441 738.151 172.769C739.207 174.081 740.975 174.737 743.455 174.737C745.951 174.737 747.719 174.081 748.759 172.769C749.815 171.441 750.343 169.225 750.343 166.121V152.345H753.847V166.745C753.847 170.681 753.047 173.489 751.447 175.169C749.863 176.849 747.199 177.689 743.455 177.689ZM763.754 189.401V152.345H767.258V157.433C768.25 155.593 769.634 154.161 771.41 153.137C773.202 152.097 775.186 151.577 777.362 151.577C779.714 151.577 781.818 152.145 783.674 153.281C785.53 154.417 786.994 155.969 788.066 157.937C789.138 159.889 789.674 162.121 789.674 164.633C789.674 167.113 789.138 169.345 788.066 171.329C787.01 173.297 785.554 174.849 783.698 175.985C781.858 177.121 779.762 177.689 777.41 177.689C775.266 177.689 773.298 177.161 771.506 176.105C769.714 175.049 768.298 173.593 767.258 171.737V189.401H763.754ZM776.594 174.641C778.434 174.641 780.066 174.217 781.49 173.369C782.914 172.505 784.026 171.321 784.826 169.817C785.642 168.313 786.05 166.593 786.05 164.657C786.05 162.705 785.642 160.977 784.826 159.473C784.01 157.953 782.89 156.769 781.466 155.921C780.058 155.057 778.434 154.625 776.594 154.625C774.754 154.625 773.122 155.057 771.698 155.921C770.274 156.769 769.154 157.945 768.338 159.449C767.522 160.953 767.114 162.681 767.114 164.633C767.114 166.569 767.522 168.297 768.338 169.817C769.154 171.321 770.274 172.505 771.698 173.369C773.138 174.217 774.77 174.641 776.594 174.641Z" fill="black"/>
</g>
<defs>
<filter id="filter0_d_102_3" x="322.381" y="7.23742" width="408.317" height="167.417" filterUnits="userSpaceOnUse" color-interpolation-filters="sRGB">
<feFlood flood-opacity="0" result="BackgroundImageFix"/>
<feColorMatrix in="SourceAlpha" type="matrix" values="0 0 0 0 0 0 0 0 0 0 0 0 0 0 0 0 0 0 127 0" result="hardAlpha"/>
<feOffset dy="4"/>
<feGaussianBlur stdDeviation="2"/>
<feComposite in2="hardAlpha" operator="out"/>
<feColorMatrix type="matrix" values="0 0 0 0 0 0 0 0 0 0 0 0 0 0 0 0 0 0 0.25 0"/>
<feBlend mode="normal" in2="BackgroundImageFix" result="effect1_dropShadow_102_3"/>
<feBlend mode="normal" in="SourceGraphic" in2="effect1_dropShadow_102_3" result="shape"/>
</filter>
<filter id="filter1_d_102_3" x="25.7338" y="24.7764" width="268.715" height="145.771" filterUnits="userSpaceOnUse" color-interpolation-filters="sRGB">
<feFlood flood-opacity="0" result="BackgroundImageFix"/>
<feColorMatrix in="SourceAlpha" type="matrix" values="0 0 0 0 0 0 0 0 0 0 0 0 0 0 0 0 0 0 127 0" result="hardAlpha"/>
<feOffset dy="4"/>
<feGaussianBlur stdDeviation="2"/>
<feComposite in2="hardAlpha" operator="out"/>
<feColorMatrix type="matrix" values="0 0 0 0 0 0 0 0 0 0 0 0 0 0 0 0 0 0 0.25 0"/>
<feBlend mode="normal" in2="BackgroundImageFix" result="effect1_dropShadow_102_3"/>
<feBlend mode="normal" in="SourceGraphic" in2="effect1_dropShadow_102_3" result="shape"/>
</filter>
<filter id="filter2_i_102_3" x="29.7338" y="24.7764" width="260.715" height="141.771" filterUnits="userSpaceOnUse" color-interpolation-filters="sRGB">
<feFlood flood-opacity="0" result="BackgroundImageFix"/>
<feBlend mode="normal" in="SourceGraphic" in2="BackgroundImageFix" result="shape"/>
<feColorMatrix in="SourceAlpha" type="matrix" values="0 0 0 0 0 0 0 0 0 0 0 0 0 0 0 0 0 0 127 0" result="hardAlpha"/>
<feOffset dy="4"/>
<feGaussianBlur stdDeviation="2"/>
<feComposite in2="hardAlpha" operator="arithmetic" k2="-1" k3="1"/>
<feColorMatrix type="matrix" values="0 0 0 0 0 0 0 0 0 0 0 0 0 0 0 0 0 0 0.25 0"/>
<feBlend mode="normal" in2="shape" result="effect1_innerShadow_102_3"/>
</filter>
<filter id="filter3_d_102_3" x="628.08" y="136.601" width="165.594" height="60.8" filterUnits="userSpaceOnUse" color-interpolation-filters="sRGB">
<feFlood flood-opacity="0" result="BackgroundImageFix"/>
<feColorMatrix in="SourceAlpha" type="matrix" values="0 0 0 0 0 0 0 0 0 0 0 0 0 0 0 0 0 0 127 0" result="hardAlpha"/>
<feOffset dy="4"/>
<feGaussianBlur stdDeviation="2"/>
<feComposite in2="hardAlpha" operator="out"/>
<feColorMatrix type="matrix" values="0 0 0 0 0 0 0 0 0 0 0 0 0 0 0 0 0 0 0.25 0"/>
<feBlend mode="normal" in2="BackgroundImageFix" result="effect1_dropShadow_102_3"/>
<feBlend mode="normal" in="SourceGraphic" in2="effect1_dropShadow_102_3" result="shape"/>
</filter>
</defs>
</svg>
