<svg width="61" height="61" viewBox="0 0 61 61" fill="none" xmlns="http://www.w3.org/2000/svg">
<path d="M35.7682 47.2857C30.9159 45.4285 25.925 45.1429 21.35 46.4286C18.1613 47.2857 15.1113 49 12.3386 51.1428L10.3977 52.8571L9.84314 53.4286L11.0909 54.5714C11.2295 54.5714 11.2295 54.7143 11.3681 54.8571C11.6454 55.1429 11.9227 55.2857 12.3386 55.5714L13.1704 56.1428L14.0022 55.4286C14.1409 55.2857 14.4181 55 14.6954 54.8571C17.1909 52.7143 19.9636 51.2857 22.8749 50.5714C26.6181 49.5714 30.6386 49.7143 34.659 51.2857C37.9863 52.5714 44.7795 54.1429 52.9591 50.5714L53.2363 50.4286L53.6522 50C53.6522 49.8571 53.7909 49.8571 53.9295 49.7143C54.6227 48.8571 55.3159 48 55.8704 47L58.6432 42.5714L54.2068 45.1428C47.6909 48.8571 41.7295 49.5714 35.7682 47.2857Z" fill="#FF0000"/>
<path d="M16.775 31.8571C20.5182 30.8571 24.5386 31 28.5591 32.5714C32.9955 34.2857 44.3636 36.7143 57.1182 24.8571L59.1977 22.7143L59.3364 22.5714L59.8909 22L59.6136 21.2857C59.475 20.7143 59.1977 20 58.9204 19.2857L58.2273 17.2857L56.8409 18.7142C56.7023 19 56.425 19.1428 56.1477 19.4285C50.0477 25.8571 40.6204 32.4286 29.8068 28.4286C24.9545 26.5714 19.9636 26.2857 15.3886 27.5714C10.9523 28.8571 7.07045 31.2857 3.4659 34.7143V34.5714L1.38636 36.8571C1.38636 37 1.24775 37 1.10911 37.1429L0.693176 37.5714L0.831821 38.1428C0.970457 38.8571 1.24772 39.5714 1.38636 40.2857L2.21818 42.5714L3.60455 40.7143C3.74318 40.4286 4.02045 40.2857 4.15909 40C7.07045 37.2857 11.0909 33.4286 16.775 31.8571Z" fill="#FF0000"/>
<path d="M3.32731 29.2857C6.51594 25.8571 10.1205 23.7143 14.0023 22.5714C17.7455 21.5714 21.7659 21.7143 25.7864 23.2857C38.2636 28 49.0773 20.2857 53.7909 16.1428L55.5932 14.2857L56.2864 13.7143L55.7318 12.8571C55.3159 12.4286 55.0387 11.8571 54.6228 11.2857L53.7909 10.1428L52.8205 11.1428C52.6818 11.2857 52.4046 11.5714 52.2659 11.7143C46.4432 17.4285 37.4318 23.2857 27.1727 19.2857C22.3205 17.4286 17.3296 17.1429 12.7546 18.4286C9.8432 19.2857 7.07046 20.7143 4.29774 22.5714L1.38636 25C1.10909 25.2857 0.970455 25.4286 0.693182 25.7143L0.415934 26V26.4286C0.277298 27.4286 0.277281 28.4286 0.138645 29.2857L0 32.8572L2.35684 30.2857C2.63411 30 2.9114 29.5714 3.32731 29.2857Z" fill="#FF0000"/>
<path d="M39.7886 57L39.5113 57.8572L39.7886 57C39.3727 56.8572 39.0955 56.7143 38.6796 56.5714C33.8273 54.7143 28.8363 54.4286 24.2613 55.7143C23.2909 56 22.3205 56.2857 21.35 56.7143L18.0227 58.2857L17.1909 58.7143L19.9636 59.7143C20.7955 60 21.6273 60.2857 22.4591 60.5715L22.875 60.7143L23.2909 60.5715C23.7068 60.4286 24.1227 60.1429 24.5386 60.1429C24.8159 60.1429 25.0932 60 25.3705 59.8572C28.6977 59 32.3023 59 36.1841 60.2857C36.6 60.4286 36.8773 60.5715 37.2932 60.7143L37.9864 61L38.4023 60.8572C39.3727 60.5714 40.4818 60.2857 41.3136 59.8572L45.1954 58.4286L41.175 57.4286C40.7591 57.2857 40.2045 57.1429 39.7886 57Z" fill="#FF0000"/>
<path d="M61 27.4286L58.9205 29.5714C58.6432 29.8571 58.366 30.1429 58.0887 30.4286C52.4046 36 43.2546 42 32.9955 38C28.1433 36.1428 23.1524 35.8572 18.5774 37.1429C14.2796 38.4286 10.3978 40.7143 6.93187 44.1429L5.12961 46.1429L4.57507 46.8571L5.12961 47.7143C5.54552 48.2857 5.82281 48.7143 6.10008 49.2857L6.93187 50.5714L7.90234 49.2857C8.04097 49.1429 8.31824 48.8571 8.45687 48.7143C11.7841 45 15.3887 42.7143 19.5478 41.5714C23.291 40.5714 27.3114 40.7143 31.3319 42.2857C34.7978 43.5714 38.4023 44 42.0069 43.5714C48.3842 42.8572 54.7614 39.1429 59.4751 35C59.7524 34.7143 60.0296 34.5714 60.3069 34.2857L60.7228 33.8571V33.4286C60.7228 32.5714 60.8614 31.5714 60.8614 30.7143L61 27.4286Z" fill="#FF0000"/>
<path d="M8.31816 14.2857L7.90227 13.4286L8.31816 14.2857C9.14998 13.8572 10.1205 13.5714 10.9523 13.2857C14.6955 12.2857 18.7159 12.4286 22.7364 14C25.3705 15 28.0045 15.4286 30.9159 15.4286C36.7386 15.4286 42.5613 13.2857 47.9682 9.14285L50.0477 7.42855L50.7409 6.85713L49.4932 5.85711C49.0773 5.42854 48.5227 4.99999 47.9682 4.71427L47.1363 4.14285L46.4432 4.71427C46.1659 4.85713 46.0272 5.14284 45.75 5.28569C38.4022 11 31.0546 12.5714 24.1227 9.85714C19.1318 8 14.1409 7.57143 9.14998 9.14285C8.73408 9.28571 8.31817 9.42855 7.76362 9.57141L7.48637 9.71427L7.07044 10.1428C7.07044 10.2857 6.93183 10.2857 6.79319 10.4286C6.23865 11.2857 5.54544 12 4.99089 12.8572L2.35681 17L6.65455 14.7143C7.34773 14.7143 7.90225 14.4286 8.31816 14.2857Z" fill="#FF0000"/>
<path d="M19.6864 4.5714L20.1023 4.71427C21.9045 5.42856 24.6773 6.14284 28.1432 6.14284C31.7478 6.14284 35.2137 5.28569 38.6796 3.85712L42.9773 1.71426L40.0659 0.714286C39.2341 0.428572 38.4023 0.142857 37.4318 0H37.0159L36.6 0.142822C36.1841 0.28568 35.7682 0.571429 35.3523 0.714286C31.1932 2.28572 27.0341 2.57143 23.0136 1.42857C22.5977 1.28571 22.1818 1.14283 21.7659 0.999974L21.35 0.857108L20.9341 0.999974C20.1023 1.28569 19.2705 1.57142 18.4387 1.99999L15.25 3.42856L18.5773 4.42854C18.8546 4.28568 19.2705 4.42855 19.6864 4.5714Z" fill="#FF0000"/>
</svg>
