<svg width="307" height="271" viewBox="0 0 307 271" fill="none" xmlns="http://www.w3.org/2000/svg">
<g filter="url(#filter0_d_1_42)">
<g filter="url(#filter1_i_1_42)">
<path d="M205.792 89.7871C140.025 160.498 71.8828 167.002 29.7338 160.424C29.703 121.946 43.1216 82.6582 159.985 28.072C197.484 4.89752 23.1144 110.61 48.5515 144.882C73.9886 179.153 243.291 66.6126 205.792 89.7871Z" fill="#FF0000"/>
<path d="M114.278 89.7261C180.158 160.525 248.31 167.12 290.449 160.599C290.418 122.12 276.937 82.8144 159.985 28.072C122.449 4.84739 296.988 110.793 271.606 145.031C246.224 179.269 76.7414 66.5015 114.278 89.7261Z" fill="#FF0000"/>
<path d="M204.812 90.8352C205.139 90.4874 205.465 90.138 205.792 89.7871C213.844 84.8104 212.36 86.0925 204.812 90.8352C193.317 103.079 181.753 113.371 170.272 121.983C166.804 120.206 163.39 118.418 160.056 116.639C179.468 106.299 196.141 96.2835 204.812 90.8352Z" fill="#FF0000"/>
</g>
</g>
<defs>
<filter id="filter0_d_1_42" x="25.7338" y="24.7764" width="268.715" height="145.771" filterUnits="userSpaceOnUse" color-interpolation-filters="sRGB">
<feFlood flood-opacity="0" result="BackgroundImageFix"/>
<feColorMatrix in="SourceAlpha" type="matrix" values="0 0 0 0 0 0 0 0 0 0 0 0 0 0 0 0 0 0 127 0" result="hardAlpha"/>
<feOffset dy="4"/>
<feGaussianBlur stdDeviation="2"/>
<feComposite in2="hardAlpha" operator="out"/>
<feColorMatrix type="matrix" values="0 0 0 0 0 0 0 0 0 0 0 0 0 0 0 0 0 0 0.25 0"/>
<feBlend mode="normal" in2="BackgroundImageFix" result="effect1_dropShadow_1_42"/>
<feBlend mode="normal" in="SourceGraphic" in2="effect1_dropShadow_1_42" result="shape"/>
</filter>
<filter id="filter1_i_1_42" x="29.7338" y="24.7764" width="260.715" height="141.771" filterUnits="userSpaceOnUse" color-interpolation-filters="sRGB">
<feFlood flood-opacity="0" result="BackgroundImageFix"/>
<feBlend mode="normal" in="SourceGraphic" in2="BackgroundImageFix" result="shape"/>
<feColorMatrix in="SourceAlpha" type="matrix" values="0 0 0 0 0 0 0 0 0 0 0 0 0 0 0 0 0 0 127 0" result="hardAlpha"/>
<feOffset dy="4"/>
<feGaussianBlur stdDeviation="2"/>
<feComposite in2="hardAlpha" operator="arithmetic" k2="-1" k3="1"/>
<feColorMatrix type="matrix" values="0 0 0 0 0 0 0 0 0 0 0 0 0 0 0 0 0 0 0.25 0"/>
<feBlend mode="normal" in2="shape" result="effect1_innerShadow_1_42"/>
</filter>
</defs>
</svg>
